<?xml version="1.0" encoding="UTF-8"?>
<!-- Generator: visioncortex VTracer 0.6.3 -->
<svg version="1.1" xmlns="http://www.w3.org/2000/svg" width="1126" height="1280">
<path d="M0 0 C11.27 -0.05 22.55 -0.08 33.82 -0.1 C39.06 -0.11 44.29 -0.13 49.53 -0.15 C54.58 -0.17 59.63 -0.18 64.68 -0.19 C66.61 -0.19 68.54 -0.2 70.47 -0.21 C73.16 -0.23 75.86 -0.23 78.56 -0.23 C79.76 -0.24 79.76 -0.24 80.98 -0.25 C88.06 -0.22 88.06 -0.22 91 2 C92.38 5.08 92.38 5.08 93.56 8.81 C95 13.29 96.57 16.99 99 21 C99.74 23 100.43 25.02 101.06 27.06 C102.32 31.13 102.32 31.13 104.06 35 C105 37 105 37 105.44 39.88 C106.07 43.36 107.27 45.83 108.94 48.94 C111.21 53.3 112.79 57.26 114 62 C114.66 62.99 115.32 63.98 116 65 C116.12 66.3 116.25 67.6 116.38 68.94 C116.79 73.01 118.06 74.15 121 77 C121.89 79.16 122.54 81.34 123.21 83.57 C124 86.01 124.98 88.24 126.06 90.56 C127.34 93.34 128.32 95.96 129 98.94 C130.57 105.87 133.64 112.27 136.62 118.69 C138.51 122.76 139.85 126.67 141 131 C141.35 131.66 141.7 132.32 142.06 133 C143 135 143 135 143.38 138.44 C144.09 142.53 145.39 143.85 148 147 C149.89 150.88 150.94 154.53 151.5 158.81 C152.05 162.29 152.54 162.75 155 165 C155.33 166.67 155.67 168.33 156 170 C156.94 171.84 157.87 173.67 158.82 175.5 C162.04 182.34 164.27 189.68 166.56 196.88 C167.75 200.5 169.33 203.78 171.08 207.16 C173.22 211.45 174.28 215.2 174 220 C174.66 220 175.32 220 176 220 C177.59 224.18 178.21 227.53 178 232 C178.66 232 179.32 232 180 232 C180.31 232.85 180.63 233.69 180.95 234.56 C183.08 240.2 185.24 245.69 188.03 251.04 C190.46 255.94 192.45 261.05 193.94 266.31 C196.27 275.82 196.27 275.82 201 284 C201.04 285.67 201.04 287.33 201 289 C201.66 289 202.32 289 203 289 C204.6 292.51 205.22 295.14 205 299 C205.66 299.33 206.32 299.66 207 300 C207.86 302.16 208.64 304.36 209.38 306.56 C210.76 310.65 212.17 314.59 214.25 318.38 C215.71 321.08 216.28 323.25 216.56 326.31 C217.04 330.31 217.34 330.46 220 333 C220.19 336.19 220.19 336.19 220 339 C220.66 339 221.32 339 222 339 C222.4 340.17 222.8 341.34 223.21 342.54 C223.74 344.09 224.28 345.64 224.81 347.19 C225.07 347.96 225.33 348.73 225.6 349.52 C225.86 350.27 226.13 351.02 226.39 351.79 C226.63 352.48 226.87 353.17 227.11 353.87 C228.25 356.59 229.15 358.66 231 361 C233.69 361.59 235.77 361.79 238.49 361.81 C239.72 361.84 239.72 361.84 240.97 361.88 C243.98 361.95 246.99 361.98 250 362 C251.2 362.01 252.4 362.02 253.64 362.04 C263.33 362.12 273.01 362.12 282.7 362.09 C286.15 362.09 289.6 362.08 293.05 362.08 C331.36 362.04 369.68 361.84 407.99 361.61 C415.44 361.57 422.89 361.53 430.35 361.49 C437.72 361.45 445.1 361.41 452.48 361.36 C456.8 361.34 461.12 361.31 465.45 361.29 C483.16 361.2 500.83 360.98 518.53 360.21 C525.24 359.93 531.94 359.92 538.65 359.98 C559.42 360.16 580.18 359.81 600.94 359.5 C602.16 359.48 602.16 359.48 603.41 359.46 C613.61 359.31 623.8 359.16 634 359 C634 358.67 634 358.34 634 358 C644.33 357.91 654.65 357.84 664.98 357.79 C669.78 357.77 674.57 357.74 679.37 357.7 C684 357.65 688.63 357.63 693.26 357.62 C695.02 357.61 696.79 357.6 698.55 357.58 C701.03 357.55 703.5 357.54 705.98 357.55 C706.7 357.53 707.43 357.52 708.18 357.5 C713.23 357.54 716.14 358.77 720 362 C720.73 364.47 720.73 364.47 720.69 367.21 C720.69 368.21 720.68 369.21 720.67 370.23 C720.64 371.27 720.6 372.31 720.56 373.38 C720.56 374.4 720.56 375.43 720.56 376.49 C720.46 382.11 720.01 386.11 717 391 C716.3 393.74 716.3 393.74 716 396 C715.34 396 714.68 396 714 396 C713.34 397.98 712.68 399.96 712 402 C711.34 402 710.68 402 710 402 C709.92 403.05 709.84 404.1 709.75 405.19 C708.93 409.38 707.7 410.81 705 414 C703.74 417.18 703.74 417.18 703 420 C702.34 420 701.68 420 701 420 C700.75 421.18 700.51 422.35 700.25 423.56 C699.36 427.13 698.02 430.04 696.09 433.19 C694.19 436.36 692.63 439.69 691 443 C690.34 443 689.68 443 689 443 C689 444.65 689 446.3 689 448 C688.34 448 687.68 448 687 448 C686.88 449.3 686.88 449.3 686.75 450.62 C685.88 454.53 684.3 456.75 682 460 C680.97 461.99 679.96 463.98 679 466 C678.34 466 677.68 466 677 466 C676.67 468.31 676.34 470.62 676 473 C675.34 473 674.68 473 674 473 C673.77 473.97 673.55 474.94 673.31 475.94 C672.19 479.91 670.29 483.19 668.23 486.74 C666.76 489.45 665.76 492.2 664.74 495.1 C663.76 497.63 662.44 499.87 661.05 502.19 C659.2 505.38 657.62 508.69 656 512 C655.34 512 654.68 512 654 512 C653.89 512.71 653.78 513.42 653.67 514.15 C652.93 517.29 651.78 519.76 650.31 522.62 C649.51 524.19 649.51 524.19 648.69 525.79 C646.61 529.73 644.48 533.64 642.3 537.53 C640.96 539.98 640.96 539.98 639.98 542.57 C639.04 544.9 637.95 546.79 636.56 548.88 C634.27 552.45 632.63 556.07 631 560 C629.37 563.35 627.69 566.68 626 570 C625.34 570 624.68 570 624 570 C623.74 571.09 623.74 571.09 623.48 572.2 C623.24 573.16 623 574.13 622.75 575.12 C622.52 576.08 622.29 577.03 622.05 578.01 C620.84 581.46 619.07 583.99 617 587 C615.75 589.36 614.54 591.72 613.38 594.12 C612.93 595.04 612.93 595.04 612.47 595.96 C611.64 597.64 610.82 599.32 610 601 C609.34 602.33 608.67 603.67 608 605 C607.34 605 606.68 605 606 605 C605.81 606.08 605.81 606.08 605.62 607.19 C605 609.98 604.22 612.41 603 615 C602.34 615.33 601.68 615.66 601 616 C600.04 618 600.04 618 599.19 620.44 C597.41 625.08 595.34 629.46 593.05 633.87 C591.89 636.1 591.89 636.1 591 639 C590.34 639 589.68 639 589 639 C588.88 639.56 588.76 640.13 588.63 640.71 C587.43 645.07 585.26 649.06 583.31 653.12 C582.86 654.07 582.41 655.02 581.95 655.99 C579.27 661.56 576.43 666.9 573.12 672.11 C571.63 674.62 570.74 677.19 570 680 C569.34 680 568.68 680 568 680 C567.9 680.89 567.79 681.77 567.69 682.69 C566.96 686.19 565.97 688.04 564 691 C559.96 697.22 559.96 697.22 557 704 C556.34 704 555.68 704 555 704 C554.75 705.15 554.5 706.31 554.25 707.5 C553.13 712.06 551.21 715.87 549 720 C548.34 720 547.68 720 547 720 C546.85 721.04 546.85 721.04 546.69 722.11 C545.88 725.5 544.54 728.21 542.94 731.31 C542.3 732.55 541.67 733.79 541.04 735.02 C540.71 735.67 540.37 736.31 540.03 736.98 C538.97 739.05 537.93 741.14 536.9 743.23 C536.55 743.93 536.2 744.63 535.84 745.35 C535.18 746.7 534.51 748.05 533.84 749.41 C531.71 753.7 529.41 757.85 527 762 C526.14 763.5 525.29 765 524.44 766.5 C524.04 767.19 523.65 767.88 523.25 768.59 C521.66 771.66 520.36 774.83 519 778 C517.87 780.32 516.73 782.63 515.56 784.94 C514.94 786.17 514.32 787.41 513.69 788.65 C513.13 789.75 512.58 790.86 512 792 C511.33 793.35 510.67 794.71 510 796.06 C503.12 809.81 503.12 809.81 499 816 C498.34 816 497.68 816 497 816 C497.09 817.39 497.09 817.39 497.19 818.81 C496.97 822.57 496.49 822.52 494 825 C492.93 827.29 492.93 827.29 492.06 829.81 C490.49 833.97 488.55 837.34 486 841 C485.28 842.65 484.6 844.31 484 846 C483.34 846 482.68 846 482 846 C481.79 847.09 481.59 848.19 481.38 849.31 C479.69 856.14 475.87 862.2 472 868 C472.33 868 472.66 868 473 868 C473 875.92 473 883.84 473 892 C469.7 892 466.4 892 463 892 C454.47 897.55 449.89 910.91 446 920 C445.68 920.74 445.36 921.48 445.03 922.24 C444.34 923.82 443.67 925.41 443 927 C442.34 927 441.68 927 441 927 C440.88 927.74 440.75 928.47 440.62 929.23 C440.03 931.89 439.25 933.85 438 936.25 C437.56 937.11 437.12 937.96 436.66 938.85 C435.84 940.41 435.84 940.41 435 942 C434.65 942.66 434.31 943.32 433.95 944.01 C426.81 957.64 426.81 957.64 423.79 962.82 C421.91 965.92 421.91 965.92 420.94 969.25 C420 972 420 972 418.56 973.37 C416.64 975.38 416 977.2 415.06 979.81 C413.49 983.97 411.55 987.34 409 991 C408.28 992.65 407.6 994.31 407 996 C406.34 996 405.68 996 405 996 C404.73 997.1 404.73 997.1 404.45 998.23 C401.82 1008.45 401.82 1008.45 399 1012 C398.34 1012 397.68 1012 397 1012 C396.85 1013.02 396.85 1013.02 396.69 1014.06 C395.85 1017.63 394.51 1020.66 393 1024 C392.34 1024 391.68 1024 391 1024 C390.89 1024.72 390.77 1025.45 390.65 1026.19 C389.97 1029.11 388.98 1031.29 387.56 1033.92 C387.06 1034.86 386.56 1035.79 386.05 1036.76 C385.52 1037.75 384.99 1038.73 384.44 1039.75 C379.33 1049.37 374.52 1059.09 370 1069 C369.34 1069 368.68 1069 368 1069 C367.92 1069.87 367.84 1070.73 367.75 1071.62 C367 1075 367 1075 365.2 1077.68 C362.24 1082.15 360.18 1086.91 358 1091.81 C356.07 1096.05 353.97 1099.38 351 1103 C349.89 1105.43 349.89 1105.43 349 1108 C341.75 1124.66 341.75 1124.66 337 1131 C336.34 1131 335.68 1131 335 1131 C334.67 1133.31 334.34 1135.62 334 1138 C333.34 1138 332.68 1138 332 1138 C331.34 1140.64 330.68 1143.28 330 1146 C329.34 1146 328.68 1146 328 1146 C327.74 1147.01 327.48 1148.03 327.21 1149.07 C326.11 1152.89 324.51 1156.28 322.69 1159.81 C322.07 1161.03 321.44 1162.25 320.82 1163.46 C320.22 1164.63 319.62 1165.8 319 1167 C318.02 1168.96 317.04 1170.91 316.06 1172.88 C315.38 1174.25 314.69 1175.62 314 1177 C313.34 1177 312.68 1177 312 1177 C311.91 1177.68 311.81 1178.36 311.72 1179.05 C310.83 1182.7 309.23 1185.82 307.5 1189.12 C303.87 1196.22 300.42 1203.39 297.06 1210.62 C294.86 1215.3 292.59 1219.77 289.58 1223.99 C289.14 1224.61 288.7 1225.23 288.25 1225.88 C287.58 1226.8 287.58 1226.8 286.89 1227.74 C285.61 1230.99 286.44 1233.61 287 1237 C304.27 1236.92 321.54 1236.82 338.82 1236.71 C346.84 1236.66 354.85 1236.62 362.87 1236.58 C369.86 1236.55 376.85 1236.51 383.84 1236.46 C387.54 1236.43 391.24 1236.41 394.95 1236.4 C399.08 1236.38 403.21 1236.35 407.34 1236.32 C408.57 1236.32 409.8 1236.31 411.06 1236.31 C412.19 1236.3 413.31 1236.29 414.47 1236.28 C415.45 1236.27 416.42 1236.27 417.43 1236.26 C420.1 1235.99 421.67 1235.29 424 1234 C426.53 1233.7 426.53 1233.7 429.37 1233.62 C430.41 1233.59 431.46 1233.55 432.53 1233.52 C434.19 1233.48 434.19 1233.48 435.88 1233.44 C438.13 1233.36 440.39 1233.29 442.65 1233.21 C444.29 1233.16 444.29 1233.16 445.96 1233.1 C449.79 1232.97 453.61 1232.79 457.44 1232.56 C459.01 1232.47 459.01 1232.47 460.62 1232.38 C463.18 1232.21 463.18 1232.21 465 1230 C467.38 1229.37 467.38 1229.37 470.12 1228.88 C471.04 1228.71 471.95 1228.54 472.88 1228.37 C473.58 1228.25 474.28 1228.12 475 1228 C475 1227.67 475 1227.34 475 1227 C476.25 1226.81 477.51 1226.61 478.8 1226.41 C480.45 1226.15 482.1 1225.89 483.75 1225.62 C484.58 1225.5 485.4 1225.37 486.25 1225.24 C487.45 1225.05 487.45 1225.05 488.67 1224.85 C489.41 1224.74 490.14 1224.62 490.89 1224.5 C493.05 1224.07 493.05 1224.07 495.04 1222.98 C497 1222 497 1222 500.69 1221.5 C502.33 1221.25 502.33 1221.25 504 1221 C504.33 1220.34 504.66 1219.68 505 1219 C507.07 1218.37 507.07 1218.37 509.56 1217.88 C510.39 1217.71 511.22 1217.54 512.07 1217.37 C512.7 1217.25 513.34 1217.12 514 1217 C514 1216.34 514 1215.68 514 1215 C517.3 1214.34 520.6 1213.68 524 1213 C523.34 1212.34 522.68 1211.68 522 1211 C525.63 1210.67 529.26 1210.34 533 1210 C533 1209.01 533 1208.02 533 1207 C533.91 1206.73 534.82 1206.46 535.75 1206.19 C538.96 1205.2 538.96 1205.2 541.12 1203.38 C543 1202 543 1202 547 1202 C547 1201.34 547 1200.68 547 1200 C548.98 1199.34 550.96 1198.68 553 1198 C553 1197.01 553 1196.02 553 1195 C554.65 1194.67 556.3 1194.34 558 1194 C558 1193.34 558 1192.68 558 1192 C560.31 1191.67 562.62 1191.34 565 1191 C565.33 1189.68 565.66 1188.36 566 1187 C567.32 1187 568.64 1187 570 1187 C570 1186.34 570 1185.68 570 1185 C569.34 1184.67 568.68 1184.34 568 1184 C568.75 1183.92 569.5 1183.84 570.28 1183.75 C573.61 1182.83 574.49 1181.66 576.56 1178.94 C578.25 1176.71 578.25 1176.71 580 1175 C581.32 1175 582.64 1175 584 1175 C584.66 1174.01 585.32 1173.02 586 1172 C586.66 1172 587.32 1172 588 1172 C588.66 1170.68 589.32 1169.36 590 1168 C590.66 1168 591.32 1168 592 1168 C592.33 1167.01 592.66 1166.02 593 1165 C595.44 1162.31 595.44 1162.31 598 1160 C598.66 1160 599.32 1160 600 1160 C600.29 1159.42 600.58 1158.85 600.88 1158.25 C601.25 1157.51 601.62 1156.77 602 1156 C602.33 1155.28 602.66 1154.56 603 1153.81 C604 1152 604 1152 606 1151 C606.3 1150.38 606.6 1149.76 606.9 1149.12 C608.15 1146.71 609.4 1145.72 611.56 1144.12 C614.36 1141.85 614.93 1141.26 615.94 1137.62 C615.96 1136.76 615.98 1135.89 616 1135 C616.66 1135.66 617.32 1136.32 618 1137 C618.27 1136.05 618.54 1135.1 618.81 1134.12 C620 1131 620 1131 623 1129 C624.11 1127.12 624.11 1127.12 625 1125 C626.55 1121.56 628.48 1118.82 631 1116 C631.99 1115.67 632.98 1115.34 634 1115 C634.33 1112.69 634.66 1110.38 635 1108 C635.66 1108 636.32 1108 637 1108 C638.77 1104.63 640.32 1101.26 641.62 1097.69 C643.23 1093.39 643.23 1093.39 646 1092 C646.16 1090.85 646.33 1089.69 646.5 1088.5 C646.66 1087.35 646.83 1086.19 647 1085 C647.66 1084.67 648.32 1084.34 649 1084 C649.33 1082.85 649.66 1081.69 650 1080.5 C650.33 1079.35 650.66 1078.19 651 1077 C651.66 1076.67 652.32 1076.34 653 1076 C653.69 1074.01 654.36 1072.01 655 1070 C655.66 1069.01 656.32 1068.02 657 1067 C657.38 1065.02 657.38 1065.02 657.5 1062.94 C658 1059 658 1059 660 1057 C660.68 1054.34 660.68 1054.34 661.12 1051.38 C661.29 1050.37 661.46 1049.37 661.63 1048.34 C661.75 1047.57 661.88 1046.79 662 1046 C662.66 1046 663.32 1046 664 1046 C664.66 1042.04 665.32 1038.08 666 1034 C666.66 1034 667.32 1034 668 1034 C668.12 1032.71 668.24 1031.42 668.37 1030.1 C668.54 1028.42 668.71 1026.74 668.88 1025.06 C668.99 1023.79 668.99 1023.79 669.11 1022.49 C669.24 1021.27 669.24 1021.27 669.37 1020.04 C669.44 1019.29 669.51 1018.54 669.59 1017.77 C669.72 1017.18 669.86 1016.6 670 1016 C670.66 1015.67 671.32 1015.34 672 1015 C672.64 1013.16 672.64 1013.16 673.04 1010.91 C673.29 1009.65 673.29 1009.65 673.55 1008.36 C673.8 1007 673.8 1007 674.06 1005.62 C674.24 1004.72 674.42 1003.81 674.6 1002.87 C675.66 997.29 676.49 991.78 676.73 986.09 C677 984 677 984 677.98 982.17 C679.11 979.76 679.4 977.88 679.63 975.23 C679.76 973.9 679.76 973.9 679.89 972.54 C680 971.16 680 971.16 680.12 969.75 C680.25 968.35 680.25 968.35 680.39 966.91 C680.6 964.61 680.8 962.31 681 960 C681.62 959.88 682.24 959.75 682.88 959.62 C685.19 959.13 685.19 959.13 687 957 C690.23 956.55 693.49 956.68 696.75 956.69 C697.64 956.67 698.54 956.66 699.46 956.64 C704.71 956.63 708.49 957.01 713 960 C714.52 963.03 713.83 966.06 713.57 969.35 C712.89 979.36 712.85 989.33 712.85 999.35 C712.85 1001.34 712.85 1003.32 712.84 1005.3 C712.84 1010.63 712.83 1015.96 712.83 1021.29 C712.83 1024.63 712.83 1027.98 712.83 1031.32 C712.82 1043.01 712.81 1054.7 712.81 1066.4 C712.82 1077.24 712.8 1088.09 712.79 1098.94 C712.78 1108.3 712.77 1117.66 712.77 1127.02 C712.77 1132.59 712.77 1138.16 712.76 1143.73 C712.75 1148.97 712.75 1154.21 712.76 1159.46 C712.76 1161.36 712.75 1163.27 712.75 1165.18 C712.51 1184.75 712.51 1184.75 715.52 1204.01 C716.32 1207.35 716.22 1210.77 716.28 1214.2 C716.3 1214.98 716.32 1215.77 716.34 1216.59 C716.42 1219.95 716.48 1223.32 716.55 1226.69 C716.6 1229.15 716.66 1231.61 716.72 1234.07 C716.73 1234.83 716.75 1235.6 716.76 1236.39 C716.78 1240.32 716.78 1240.32 718 1244 C718.4 1246.6 718.75 1249.2 719.06 1251.81 C719.15 1252.52 719.24 1253.24 719.34 1253.97 C719.58 1255.98 719.79 1257.99 720 1260 C720.1 1260.91 720.2 1261.82 720.31 1262.76 C719.87 1265.96 718.46 1266.97 716 1269 C713.63 1269.49 713.63 1269.49 710.97 1269.49 C709.96 1269.49 708.95 1269.5 707.9 1269.5 C706.81 1269.49 705.71 1269.48 704.57 1269.46 C703.42 1269.46 702.26 1269.46 701.07 1269.46 C697.28 1269.45 693.48 1269.42 689.69 1269.38 C687.07 1269.36 684.46 1269.35 681.85 1269.33 C664.93 1269.22 648.03 1268.79 631.12 1268.06 C630.12 1268.02 629.12 1267.98 628.08 1267.93 C625.26 1267.81 622.45 1267.67 619.63 1267.54 C618.81 1267.5 617.99 1267.46 617.14 1267.42 C611.42 1267.12 611.42 1267.12 609.15 1266.49 C606.31 1265.84 603.64 1265.87 600.72 1265.87 C599.42 1265.87 598.13 1265.87 596.79 1265.87 C595.34 1265.87 593.9 1265.87 592.45 1265.87 C590.92 1265.87 589.39 1265.87 587.86 1265.87 C583.64 1265.86 579.43 1265.87 575.21 1265.87 C570.67 1265.87 566.13 1265.87 561.58 1265.87 C552.68 1265.86 543.78 1265.86 534.88 1265.86 C527.64 1265.87 520.41 1265.87 513.18 1265.87 C512.15 1265.87 511.12 1265.87 510.06 1265.87 C507.97 1265.87 505.88 1265.87 503.8 1265.86 C484.2 1265.86 464.6 1265.87 445 1265.87 C428.17 1265.88 411.34 1265.87 394.51 1265.87 C374.99 1265.86 355.46 1265.86 335.93 1265.87 C333.85 1265.87 331.77 1265.87 329.69 1265.87 C328.66 1265.87 327.64 1265.87 326.59 1265.87 C319.36 1265.87 312.13 1265.87 304.9 1265.86 C296.1 1265.86 287.3 1265.86 278.49 1265.87 C274 1265.87 269.5 1265.87 265.01 1265.87 C260.9 1265.86 256.79 1265.87 252.68 1265.87 C251.19 1265.87 249.7 1265.87 248.21 1265.87 C246.19 1265.87 244.17 1265.87 242.15 1265.87 C241.03 1265.87 239.9 1265.87 238.75 1265.87 C235.91 1265.88 235.91 1265.88 233 1267 C231.13 1267.15 229.26 1267.24 227.39 1267.3 C226.22 1267.34 225.04 1267.38 223.83 1267.42 C221.88 1267.48 221.88 1267.48 219.89 1267.54 C218.49 1267.58 217.09 1267.62 215.69 1267.67 C211.02 1267.81 206.36 1267.94 201.69 1268.06 C200.49 1268.1 200.49 1268.1 199.26 1268.13 C168.15 1268.98 137.03 1269.25 105.91 1269.3 C102.43 1269.31 98.95 1269.33 95.47 1269.34 C89.97 1269.36 84.46 1269.37 78.96 1269.36 C76.91 1269.36 74.87 1269.37 72.82 1269.38 C70.01 1269.39 67.21 1269.38 64.4 1269.37 C63.57 1269.38 62.74 1269.39 61.89 1269.4 C59.61 1269.37 59.61 1269.37 56 1269 C53.6 1265.4 53.74 1263.74 53.73 1259.47 C53.73 1258.18 53.73 1256.9 53.73 1255.57 C53.73 1254.91 53.73 1254.24 53.74 1253.55 C53.75 1251.51 53.74 1249.47 53.73 1247.43 C53.73 1245.5 53.73 1245.5 53.73 1243.53 C53.74 1242.35 53.74 1241.17 53.74 1239.96 C54 1237 54 1237 56 1234 C56.68 1232.68 57.35 1231.34 58 1230 C58.67 1228.67 59.33 1227.33 60 1226 C60.5 1224.98 60.5 1224.98 61 1223.94 C62 1222 62 1222 64 1219 C64.31 1218.01 64.62 1217.02 64.94 1216 C66 1213 66 1213 67.52 1211.61 C69.45 1209.51 69.48 1208.11 69.69 1205.31 C69.75 1204.5 69.82 1203.7 69.89 1202.86 C69.92 1202.25 69.96 1201.63 70 1201 C70.66 1201.99 71.32 1202.98 72 1204 C72.66 1202.02 73.32 1200.04 74 1198 C74.66 1198 75.32 1198 76 1198 C78.14 1193.09 80.13 1188.14 82.04 1183.14 C83 1181 83 1181 85 1179 C85.7 1177.68 86.36 1176.35 87 1175 C87.41 1174.21 87.83 1173.41 88.25 1172.6 C88.69 1171.76 89.12 1170.92 89.56 1170.06 C90 1169.23 90.43 1168.39 90.88 1167.54 C92 1165.01 92.57 1162.72 93 1160 C93.66 1160 94.32 1160 95 1160 C95.66 1157.69 96.32 1155.38 97 1153 C97.66 1153 98.32 1153 99 1153 C99.66 1150.03 100.32 1147.06 101 1144 C101.66 1144.33 102.32 1144.66 103 1145 C103.12 1144.42 103.25 1143.85 103.38 1143.25 C104.01 1140.96 104.89 1139.1 106 1137 C106.5 1135.98 106.5 1135.98 107 1134.94 C108 1133 108 1133 110 1130 C110.74 1128.21 110.74 1128.21 111.5 1126.38 C113 1123 113 1123 115 1122 C117.4 1117.1 118.79 1112.31 120 1107 C120.66 1107.33 121.32 1107.66 122 1108 C123.13 1104.69 124.21 1101.41 125 1098 C125.33 1098.66 125.66 1099.32 126 1100 C126.66 1097.36 127.32 1094.72 128 1092 C128.66 1092 129.32 1092 130 1092 C130.29 1090.87 130.58 1089.73 130.88 1088.56 C131.25 1087.39 131.62 1086.21 132 1085 C132.66 1084.67 133.32 1084.34 134 1084 C134.16 1083.17 134.33 1082.35 134.5 1081.5 C134.66 1080.67 134.83 1079.85 135 1079 C135.66 1078.67 136.32 1078.34 137 1078 C137.33 1076.85 137.66 1075.69 138 1074.5 C138.33 1073.35 138.66 1072.19 139 1071 C139.66 1070.67 140.32 1070.34 141 1070 C141.73 1067.69 142.4 1065.35 143 1063 C143.66 1063 144.32 1063 145 1063 C147.4 1058.43 149.25 1053.84 151 1049 C151.99 1049 152.98 1049 154 1049 C154.04 1048.39 154.07 1047.77 154.11 1047.14 C154.18 1046.33 154.24 1045.52 154.31 1044.69 C154.4 1043.49 154.4 1043.49 154.49 1042.26 C155.09 1039.59 156.02 1038.81 158 1037 C158.33 1036.01 158.66 1035.02 159 1034 C159.66 1034 160.32 1034 161 1034 C161.1 1033.26 161.21 1032.52 161.31 1031.75 C162 1029 162 1029 163.5 1027.12 C165.56 1024.21 165.66 1021.5 166 1018 C166.66 1018 167.32 1018 168 1018 C168.66 1015.69 169.32 1013.38 170 1011 C170.66 1011 171.32 1011 172 1011 C172.66 1008.69 173.32 1006.38 174 1004 C174.99 1004 175.98 1004 177 1004 C177.33 1001.03 177.66 998.06 178 995 C178.66 995 179.32 995 180 995 C180.66 992.36 181.32 989.72 182 987 C182.66 987 183.32 987 184 987 C184.27 986.03 184.54 985.06 184.81 984.06 C185.4 982.55 185.4 982.55 186 981 C186.99 980.67 187.98 980.34 189 980 C188.91 978.58 188.91 978.58 188.81 977.12 C188.87 976.09 188.94 975.06 189 974 C189.99 973.34 190.98 972.68 192 972 C192.34 970.33 192.67 968.67 193 967 C194 966 195 965 196 964 C196.36 962.34 196.69 960.67 197 959 C197.66 958.67 198.32 958.34 199 958 C199.33 956.85 199.66 955.69 200 954.5 C200.33 953.35 200.66 952.19 201 951 C201.66 950.67 202.32 950.34 203 950 C203.73 947.69 204.4 945.35 205 943 C205.66 943 206.32 943 207 943 C209.16 938.66 209.16 938.66 210 934 C210.66 934 211.32 934 212 934 C212 932.68 212 931.36 212 930 C212.99 930 213.98 930 215 930 C215.19 928.08 215.19 928.08 215.38 926.12 C215.75 922.25 215.75 922.25 218 920 C218.71 918.02 219.39 916.02 220 914 C220.66 914 221.32 914 222 914 C222.66 911.69 223.32 909.38 224 907 C224.66 907 225.32 907 226 907 C226.66 904.03 227.32 901.06 228 898 C228.66 898 229.32 898 230 898 C230.99 895.69 231.98 893.38 233 891 C226.06 890.97 219.12 890.96 212.17 890.95 C209.81 890.94 207.45 890.93 205.09 890.92 C201.7 890.91 198.3 890.91 194.91 890.9 C193.85 890.9 192.79 890.89 191.7 890.89 C190.72 890.89 189.74 890.89 188.73 890.89 C187.86 890.88 186.99 890.88 186.1 890.88 C183.94 890.86 183.94 890.86 182 892 C179.99 892.16 177.98 892.25 175.97 892.32 C174.72 892.36 173.46 892.4 172.17 892.44 C170.8 892.48 169.43 892.52 168.06 892.56 C167.38 892.58 166.69 892.6 165.98 892.63 C155.89 892.93 145.79 893.1 135.69 893.12 C134.54 893.13 133.39 893.13 132.21 893.14 C131.15 893.14 130.1 893.13 129.01 893.13 C128.09 893.13 127.16 893.13 126.21 893.13 C124 893 124 893 122 892 C121.34 892.33 120.68 892.66 120 893 C112.69 893.94 105.36 894.15 98 894 C98 893.34 98 892.68 98 892 C96.33 892.09 96.33 892.09 94.62 892.19 C93.43 892.13 92.23 892.06 91 892 C88.09 887.63 88.67 883.64 88.69 878.5 C88.67 877.54 88.66 876.57 88.64 875.58 C88.64 874.66 88.64 873.73 88.64 872.78 C88.63 871.51 88.63 871.51 88.63 870.22 C89.09 867.49 89.78 866.62 92 865 C98.78 863.74 105.69 863.72 112.58 863.57 C116.8 863.41 120.34 863.05 124.28 861.47 C127.74 860.1 129.84 859.66 133.5 859.81 C134.36 859.84 135.21 859.87 136.09 859.89 C137.04 859.95 137.04 859.95 138 860 C138 859.34 138 858.68 138 858 C138.81 857.89 139.62 857.78 140.45 857.67 C142.05 857.43 142.05 857.43 143.69 857.19 C144.74 857.04 145.8 856.89 146.89 856.73 C150.13 855.97 152.25 854.84 155 853 C155.85 852.53 156.69 852.05 157.56 851.56 C160.08 850.09 160.08 850.09 162 847.88 C164.33 845.69 165.87 845.35 169 845 C169.12 844.2 169.25 843.39 169.38 842.56 C169.58 841.72 169.79 840.87 170 840 C170.66 839.67 171.32 839.34 172 839 C172.68 837.11 172.68 837.11 173.12 834.94 C173.38 833.84 173.38 833.84 173.63 832.71 C173.75 832.15 173.88 831.58 174 831 C174.66 831 175.32 831 176 831 C175.43 810.8 173.69 790.57 165 772 C163.37 768.13 162.06 764.19 160.78 760.18 C160.01 758.02 159.03 756.05 158 754 C157.3 751.67 156.64 749.34 156 747 C154.24 740.57 152.01 734.53 149.39 728.41 C146.91 722.33 144.82 716.12 142.67 709.93 C140.7 704.28 138.64 698.68 136.53 693.09 C136 691.68 135.47 690.28 134.94 688.88 C134.68 688.18 134.41 687.49 134.15 686.77 C132.82 683.24 131.54 679.71 130.38 676.12 C128.54 670.47 126.24 664.99 123.96 659.5 C121.9 654.47 120.16 649.46 118.71 644.23 C118.07 642.01 118.07 642.01 117.04 640.11 C116.05 638.09 115.3 636.13 114.6 634 C114.35 633.26 114.1 632.51 113.84 631.75 C113.32 630.21 112.81 628.66 112.3 627.11 C111.92 626 111.92 626 111.54 624.87 C111.31 624.2 111.09 623.53 110.86 622.84 C109.89 620.76 108.7 619.52 107 618 C106.87 619.14 106.73 620.29 106.6 621.46 C106.42 622.96 106.24 624.45 106.06 625.94 C105.98 626.69 105.89 627.45 105.8 628.22 C105.11 633.89 105.11 633.89 104 635 C103.34 638.6 102.75 642.21 102.19 645.83 C101.21 651.79 101.21 651.79 99 654 C97.17 654.24 97.17 654.24 94.96 654.23 C94.15 654.23 93.34 654.23 92.51 654.22 C91.66 654.21 90.81 654.2 89.94 654.19 C88.7 654.19 88.7 654.19 87.45 654.19 C73.17 654.08 73.17 654.08 69 652 C69.01 651.41 69.03 650.82 69.04 650.21 C69.83 613.01 69.83 613.01 70.12 575.81 C70.13 575.01 70.13 574.21 70.13 573.39 C70.14 571.16 70.14 568.93 70.13 566.71 C70.13 565.47 70.13 564.24 70.13 562.97 C70.13 559.94 70.13 559.94 69 557 C-14.49 557.33 -97.98 557.66 -184 558 C-185.49 562.46 -185.49 562.46 -187 567 C-187.67 569 -188.33 571 -189 573 C-189.66 573 -190.32 573 -191 573 C-190.94 574.05 -190.88 575.1 -190.81 576.19 C-191.02 580.38 -191.82 581.53 -194 585 C-194.49 586.53 -194.95 588.07 -195.38 589.62 C-196.45 593.44 -197.8 596.91 -199.5 600.5 C-201.5 604.74 -202.93 608.89 -204.19 613.39 C-205.75 618.4 -207.91 623.19 -210 628 C-210.6 629.42 -211.21 630.83 -211.81 632.25 C-212.2 633.16 -212.6 634.07 -213 635 C-213.66 635 -214.32 635 -215 635 C-214.79 635.6 -214.59 636.2 -214.38 636.81 C-214 639 -214 639 -216 642 C-216.66 642 -217.32 642 -218 642 C-217.92 643.13 -217.84 644.27 -217.75 645.44 C-217.74 649.81 -219.03 652.89 -220.93 656.78 C-221.93 658.85 -222.73 660.9 -223.5 663.06 C-224.47 665.75 -225.61 668.14 -227 670.62 C-229.48 675.39 -230.26 680.45 -231.29 685.68 C-232.14 689.67 -233.46 693.23 -235 697 C-235.74 699 -236.46 701 -237.19 703 C-237.53 703.95 -237.88 704.9 -238.23 705.88 C-238.48 706.58 -238.74 707.28 -239 708 C-239.66 708 -240.32 708 -241 708 C-240.97 708.86 -240.93 709.71 -240.89 710.6 C-240.87 711.74 -240.84 712.88 -240.81 714.06 C-240.78 715.19 -240.74 716.31 -240.71 717.47 C-240.99 720.82 -241.8 722.89 -243.21 725.88 C-244.99 730.65 -245.37 735.86 -246.06 740.88 C-246.38 743.14 -246.71 745.41 -247.04 747.68 C-247.19 748.78 -247.35 749.87 -247.51 751 C-247.92 753.48 -248.45 755.83 -249.1 758.25 C-250.58 764.63 -250.37 771.24 -250.37 777.75 C-250.37 780.03 -250.41 782.31 -250.45 784.59 C-250.54 796.16 -249.13 807.08 -244.36 817.77 C-243 821 -243 821 -243 824 C-242.34 824 -241.68 824 -241 824 C-240.33 825.46 -239.66 826.92 -239 828.38 C-238.63 829.19 -238.26 830 -237.88 830.84 C-237 833 -237 833 -237 835 C-236.4 835.27 -235.8 835.54 -235.19 835.81 C-233.02 836.99 -231.72 838.28 -230 840 C-229.34 840 -228.68 840 -228 840 C-227.59 840.76 -227.18 841.53 -226.75 842.31 C-224.53 845.73 -222.73 846.37 -219 848 C-217.39 848.83 -215.79 849.66 -214.19 850.5 C-208.04 853.55 -202.26 855.93 -195.38 856.44 C-189.68 856.86 -184.37 858.4 -178.91 859.96 C-169.38 862.56 -160.36 863.34 -150.51 863.48 C-149.57 863.5 -148.63 863.53 -147.66 863.56 C-146.81 863.57 -145.96 863.59 -145.09 863.6 C-144.4 863.73 -143.71 863.86 -143 864 C-139.45 869.33 -139.84 875.5 -139.81 881.75 C-139.8 883.04 -139.78 884.34 -139.77 885.67 C-140 889 -140 889 -142 892 C-153.04 896.56 -167.83 894.19 -179.31 892.38 C-180.2 892.25 -181.09 892.13 -182 892 C-182.33 892.33 -182.66 892.66 -183 893 C-186 893.03 -188.97 893 -191.96 892.91 C-192.86 892.89 -193.76 892.87 -194.69 892.85 C-196.6 892.8 -198.52 892.75 -200.43 892.7 C-203.36 892.63 -206.28 892.56 -209.21 892.49 C-211.07 892.45 -212.92 892.4 -214.77 892.35 C-215.65 892.33 -216.53 892.31 -217.43 892.29 C-218.25 892.27 -219.07 892.25 -219.91 892.22 C-220.63 892.2 -221.35 892.18 -222.09 892.16 C-224 892 -224 892 -227 891 C-228.94 890.89 -230.89 890.83 -232.83 890.81 C-234.63 890.79 -234.63 890.79 -236.46 890.76 C-237.76 890.75 -239.05 890.73 -240.38 890.72 C-241.72 890.7 -243.06 890.68 -244.4 890.66 C-249.36 890.59 -254.33 890.53 -259.29 890.47 C-263.49 890.42 -267.69 890.37 -271.89 890.31 C-273.87 890.28 -275.84 890.26 -277.82 890.24 C-279.6 890.22 -279.6 890.22 -281.43 890.19 C-282.48 890.18 -283.54 890.16 -284.62 890.15 C-287 890 -287 890 -288 889 C-290.16 888.9 -292.33 888.87 -294.5 888.88 C-295.69 888.87 -296.87 888.87 -298.09 888.87 C-300.89 888.67 -300.89 888.67 -302 890 C-305.08 890.15 -308.14 890.24 -311.21 890.28 C-312.14 890.3 -313.07 890.32 -314.02 890.34 C-316.99 890.4 -319.97 890.45 -322.94 890.5 C-326.84 890.57 -330.75 890.64 -334.65 890.72 C-336.01 890.74 -336.01 890.74 -337.4 890.76 C-338.23 890.78 -339.07 890.79 -339.93 890.81 C-341.04 890.83 -341.04 890.83 -342.17 890.85 C-344.1 890.89 -344.1 890.89 -346 892 C-347.47 892.1 -348.94 892.14 -350.42 892.15 C-351.79 892.15 -351.79 892.15 -353.19 892.16 C-354.18 892.17 -355.17 892.17 -356.19 892.17 C-357.2 892.17 -358.21 892.17 -359.26 892.18 C-361.4 892.18 -363.55 892.19 -365.69 892.19 C-368.99 892.19 -372.28 892.21 -375.57 892.22 C-377.65 892.23 -379.73 892.23 -381.81 892.23 C-382.8 892.24 -383.79 892.24 -384.81 892.25 C-385.73 892.25 -386.64 892.25 -387.58 892.24 C-388.39 892.24 -389.2 892.25 -390.03 892.25 C-392 892 -392 892 -394 890 C-395.28 886.45 -395.17 882.86 -395.19 879.12 C-395.2 877.93 -395.22 876.74 -395.23 875.51 C-395 872 -394.24 869.28 -393 866 C-393 865.67 -393 865.34 -393 865 C-391.76 864.71 -390.52 864.42 -389.25 864.12 C-386.26 863.38 -383.72 862.47 -381 861 C-380.34 861 -379.68 861 -379 861 C-378.67 860.34 -378.34 859.68 -378 859 C-377.01 859.33 -376.02 859.66 -375 860 C-375 859.34 -375 858.68 -375 858 C-374.01 858 -373.02 858 -372 858 C-371.67 857.34 -371.34 856.68 -371 856 C-369 855.33 -367 854.67 -365 854 C-365 853.34 -365 852.68 -365 852 C-364.34 852 -363.68 852 -363 852 C-363 851.34 -363 850.68 -363 850 C-361.02 849.67 -359.04 849.34 -357 849 C-356.67 848.01 -356.34 847.02 -356 846 C-350.53 841 -350.53 841 -348 841 C-347.67 840.01 -347.34 839.02 -347 838 C-345.33 836.67 -343.67 835.33 -342 834 C-341.67 833.01 -341.34 832.02 -341 831 C-340.01 831 -339.02 831 -338 831 C-337.5 828.53 -337.5 828.53 -337 826 C-336.34 826 -335.68 826 -335 826 C-334.57 825.07 -334.57 825.07 -334.12 824.12 C-333 822 -333 822 -331 820 C-330.57 819.24 -330.13 818.47 -329.69 817.69 C-328 815 -328 815 -325.38 812.5 C-322.79 809.78 -322.58 808.57 -322 805 C-321.01 804.34 -320.02 803.68 -319 803 C-317.66 800.69 -316.85 798.54 -316 796 C-315.34 796 -314.68 796 -314 796 C-313.86 795.42 -313.71 794.85 -313.56 794.25 C-313.04 792.17 -312.52 790.08 -312 788 C-311.34 788 -310.68 788 -310 788 C-309.67 787.01 -309.34 786.02 -309 785 C-308.34 784.01 -307.68 783.02 -307 782 C-307.66 781.67 -308.32 781.34 -309 781 C-308.01 781 -307.02 781 -306 781 C-305.86 780.42 -305.73 779.85 -305.59 779.25 C-305.03 777.1 -304.38 775.03 -303.62 772.94 C-303.39 772.27 -303.16 771.59 -302.91 770.9 C-301.91 768.8 -300.72 767.54 -299 766 C-299.66 765.67 -300.32 765.34 -301 765 C-300.01 765 -299.02 765 -298 765 C-297.01 761.04 -296.02 757.08 -295 753 C-294.34 753 -293.68 753 -293 753 C-292 749.42 -292 749.42 -293 746 C-292.34 746 -291.68 746 -291 746 C-291 745.01 -291 744.02 -291 743 C-290.34 742.67 -289.68 742.34 -289 742 C-288.39 739.91 -288.39 739.91 -288 737.5 C-287.56 735.03 -287.56 735.03 -287 733 C-286.34 732.67 -285.68 732.34 -285 732 C-285 730.35 -285 728.7 -285 727 C-284.34 727 -283.68 727 -283 727 C-283 726.01 -283 725.02 -283 724 C-282.34 724 -281.68 724 -281 724 C-280.67 722.68 -280.34 721.36 -280 720 C-280.66 719.67 -281.32 719.34 -282 719 C-281.34 719 -280.68 719 -280 719 C-279.73 718.01 -279.46 717.02 -279.19 716 C-278.23 712.63 -277.05 709.39 -275.79 706.13 C-274.65 703.05 -273.7 699.92 -272.75 696.79 C-272 695 -272 695 -270 694 C-269.25 692.07 -269.25 692.07 -269 690 C-269.33 689.34 -269.66 688.68 -270 688 C-269.34 688 -268.68 688 -268 688 C-268 687.01 -268 686.02 -268 685 C-267.34 684.67 -266.68 684.34 -266 684 C-265.39 681.68 -265.39 681.68 -265 679 C-264.56 676.25 -264.56 676.25 -264 674 C-263.34 673.67 -262.68 673.34 -262 673 C-261.31 670.65 -261.31 670.65 -260.88 667.94 C-260.71 667.02 -260.54 666.1 -260.37 665.15 C-260.25 664.44 -260.12 663.73 -260 663 C-259.34 663 -258.68 663 -258 663 C-258.06 662.26 -258.12 661.51 -258.19 660.75 C-257.96 657.49 -257.11 656.43 -255 654 C-254.34 653.01 -253.68 652.02 -253 651 C-253.66 650.67 -254.32 650.34 -255 650 C-254.34 650 -253.68 650 -253 650 C-253 648.68 -253 647.36 -253 646 C-251.5 644.25 -251.5 644.25 -250 643 C-250.66 642.67 -251.32 642.34 -252 642 C-251.01 642 -250.02 642 -249 642 C-249.04 641.05 -249.08 640.1 -249.12 639.12 C-249 636 -249 636 -247 634 C-247 632.68 -247 631.36 -247 630 C-246.34 630 -245.68 630 -245 630 C-245 628.68 -245 627.36 -245 626 C-244.34 625.67 -243.68 625.34 -243 625 C-243 623.02 -243 621.04 -243 619 C-242.34 619 -241.68 619 -241 619 C-240.67 617.68 -240.34 616.36 -240 615 C-239.67 615 -239.34 615 -239 615 C-238.34 611.37 -237.68 607.74 -237 604 C-236.34 604 -235.68 604 -235 604 C-234.88 603.37 -234.76 602.75 -234.63 602.1 C-234.38 600.88 -234.38 600.88 -234.12 599.62 C-233.88 598.41 -233.88 598.41 -233.63 597.16 C-233 595 -233 595 -231 593 C-230.39 590.94 -229.99 588.88 -229.56 586.78 C-229.38 586.19 -229.19 585.6 -229 585 C-228.34 584.67 -227.68 584.34 -227 584 C-226.51 582.05 -226.02 580.1 -225.57 578.14 C-224.79 575.21 -223.46 572.66 -222 570 C-222.66 569.67 -223.32 569.34 -224 569 C-223.34 569 -222.68 569 -222 569 C-222 568.01 -222 567.02 -222 566 C-221.34 565.67 -220.68 565.34 -220 565 C-216.92 558.58 -215.03 552.06 -214 545 C-213.34 545 -212.68 545 -212 545 C-211.34 542.03 -210.68 539.06 -210 536 C-209.34 536 -208.68 536 -208 536 C-207.34 533.03 -206.68 530.06 -206 527 C-205.34 527 -204.68 527 -204 527 C-204.33 525.68 -204.66 524.36 -205 523 C-204.34 523 -203.68 523 -203 523 C-203 520.36 -203 517.72 -203 515 C-202.34 515.66 -201.68 516.32 -201 517 C-200.88 516.3 -200.76 515.6 -200.63 514.88 C-200.47 513.97 -200.3 513.06 -200.12 512.12 C-199.88 510.77 -199.88 510.77 -199.63 509.38 C-199 507 -199 507 -197 505 C-196.39 502.94 -195.99 500.88 -195.56 498.78 C-195.38 498.19 -195.19 497.6 -195 497 C-194.34 496.67 -193.68 496.34 -193 496 C-192.67 495.01 -192.34 494.02 -192 493 C-192.66 492.67 -193.32 492.34 -194 492 C-193.01 492 -192.02 492 -191 492 C-191.03 490.79 -191.03 490.79 -191.06 489.56 C-191 487 -191 487 -190 486 C-189.34 485.67 -188.68 485.34 -188 485 C-187.61 483.14 -187.61 483.14 -187.5 481 C-187.34 478.81 -187.34 478.81 -187 477 C-186.34 476.67 -185.68 476.34 -185 476 C-184.28 473.95 -183.57 471.89 -182.93 469.81 C-181.51 465.5 -179.78 461.32 -178.09 457.11 C-176.9 454.01 -176.9 454.01 -176.48 450.67 C-176.32 449.79 -176.16 448.91 -176 448 C-175.34 447.67 -174.68 447.34 -174 447 C-174 445.68 -174 444.36 -174 443 C-173.34 442.67 -172.68 442.34 -172 442 C-172 440.02 -172 438.04 -172 436 C-171.34 436.33 -170.68 436.66 -170 437 C-168.99 433.95 -168.99 433.95 -170 431 C-169.34 431 -168.68 431 -168 431 C-167.67 430.01 -167.34 429.02 -167 428 C-166.35 426.66 -165.68 425.32 -165 424 C-165.66 423.67 -166.32 423.34 -167 423 C-166.34 422.67 -165.68 422.34 -165 422 C-164.27 420.02 -163.6 418.02 -163 416 C-162.34 416 -161.68 416 -161 416 C-160.81 414.36 -160.81 414.36 -160.62 412.69 C-160 409 -160 409 -158 406 C-158.33 405.34 -158.66 404.68 -159 404 C-158.34 404 -157.68 404 -157 404 C-156.67 402.35 -156.34 400.7 -156 399 C-155.34 399 -154.68 399 -154 399 C-153.67 397.02 -153.34 395.04 -153 393 C-153.66 392.67 -154.32 392.34 -155 392 C-154.36 391.61 -153.73 391.22 -153.07 390.82 C-150.49 388.55 -150.33 387.23 -149.88 383.88 C-149.49 381.18 -149.49 381.18 -149 379 C-148.34 378.67 -147.68 378.34 -147 378 C-146.31 375.65 -146.31 375.65 -145.88 372.94 C-145.71 372.02 -145.54 371.1 -145.37 370.15 C-145.25 369.44 -145.12 368.73 -145 368 C-144.34 368 -143.68 368 -143 368 C-142.88 367.36 -142.76 366.72 -142.63 366.07 C-142.38 364.83 -142.38 364.83 -142.12 363.56 C-141.96 362.74 -141.8 361.92 -141.63 361.07 C-141.42 360.38 -141.22 359.7 -141 359 C-140.34 358.67 -139.68 358.34 -139 358 C-138.39 355.68 -138.39 355.68 -138 353 C-137.56 350.25 -137.56 350.25 -137 348 C-136.34 347.67 -135.68 347.34 -135 347 C-134.35 344.98 -134.35 344.98 -134 343 C-134.66 342.67 -135.32 342.34 -136 342 C-135.01 342 -134.02 342 -133 342 C-133 340.68 -133 339.36 -133 338 C-132.34 338 -131.68 338 -131 338 C-130.88 336.87 -130.75 335.73 -130.62 334.56 C-130.32 332.8 -130.32 332.8 -130 331 C-129.34 330.67 -128.68 330.34 -128 330 C-127.27 328.02 -126.6 326.02 -126 324 C-126.66 323.67 -127.32 323.34 -128 323 C-126.67 321.67 -125.33 320.33 -124 319 C-123.38 316.42 -122.98 313.83 -122.56 311.21 C-122.38 310.48 -122.19 309.75 -122 309 C-121.34 308.67 -120.68 308.34 -120 308 C-119.39 306.18 -119.39 306.18 -119 304.06 C-118.4 301.09 -118.21 300.21 -116 298 C-115.26 296.03 -115.26 296.03 -115 294 C-115.33 293.34 -115.66 292.68 -116 292 C-115.34 292 -114.68 292 -114 292 C-114 291.34 -114 290.68 -114 290 C-113.34 289.67 -112.68 289.34 -112 289 C-111.35 286.98 -111.35 286.98 -111 285 C-111.66 284.67 -112.32 284.34 -113 284 C-112.34 283.67 -111.68 283.34 -111 283 C-110.83 282.18 -110.67 281.35 -110.5 280.5 C-110.33 279.68 -110.17 278.85 -110 278 C-109.34 277.67 -108.68 277.34 -108 277 C-107.39 275.18 -107.39 275.18 -107 273.06 C-106.4 270.09 -106.21 269.21 -104 267 C-103.6 265.01 -103.26 263.01 -103 261 C-102.01 261 -101.02 261 -100 261 C-99.67 257.37 -99.34 253.74 -99 250 C-98.34 250 -97.68 250 -97 250 C-96.88 249.29 -96.76 248.58 -96.63 247.85 C-96.47 246.93 -96.3 246.01 -96.12 245.06 C-95.96 244.15 -95.8 243.23 -95.63 242.29 C-95.42 241.53 -95.22 240.78 -95 240 C-94.34 239.67 -93.68 239.34 -93 239 C-92.67 238.01 -92.34 237.02 -92 236 C-92.66 235.67 -93.32 235.34 -94 235 C-93.01 235 -92.02 235 -91 235 C-90.88 234.46 -90.75 233.93 -90.62 233.38 C-89.88 230.54 -88.93 227.78 -88 225 C-87.65 223.67 -87.31 222.34 -87 221 C-86.34 221 -85.68 221 -85 221 C-84.34 216.71 -83.68 212.42 -83 208 C-82.34 208 -81.68 208 -81 208 C-80.67 207.01 -80.34 206.02 -80 205 C-80.66 204.67 -81.32 204.34 -82 204 C-81.01 204 -80.02 204 -79 204 C-79 203.01 -79 202.02 -79 201 C-78.34 201 -77.68 201 -77 201 C-77.33 199.68 -77.66 198.36 -78 197 C-77.34 197 -76.68 197 -76 197 C-76 195.35 -76 193.7 -76 192 C-75.34 192 -74.68 192 -74 192 C-73.34 187.38 -72.68 182.76 -72 178 C-71.34 178.66 -70.68 179.32 -70 180 C-69.88 179.36 -69.76 178.72 -69.63 178.07 C-69.47 177.24 -69.3 176.41 -69.12 175.56 C-68.88 174.33 -68.88 174.33 -68.63 173.07 C-68.42 172.38 -68.22 171.7 -68 171 C-67.34 170.67 -66.68 170.34 -66 170 C-66 168.35 -66 166.7 -66 165 C-65.34 165 -64.68 165 -64 165 C-64 164.01 -64 163.02 -64 162 C-63.34 161.67 -62.68 161.34 -62 161 C-61.39 158.95 -61.39 158.95 -61 156.56 C-60.22 152.22 -60.22 152.22 -58 150 C-57.32 147.8 -57.32 147.8 -56.88 145.38 C-56.71 144.56 -56.54 143.74 -56.37 142.9 C-56.25 142.27 -56.12 141.65 -56 141 C-55.34 141 -54.68 141 -54 141 C-53.34 138.03 -52.68 135.06 -52 132 C-51.34 132 -50.68 132 -50 132 C-50.33 130.35 -50.66 128.7 -51 127 C-50.34 127 -49.68 127 -49 127 C-49 125.02 -49 123.04 -49 121 C-48.34 121 -47.68 121 -47 121 C-46.88 120.37 -46.76 119.75 -46.63 119.1 C-46.47 118.28 -46.3 117.47 -46.12 116.62 C-45.88 115.41 -45.88 115.41 -45.63 114.16 C-45 112 -45 112 -43 110 C-43.33 109.34 -43.66 108.68 -44 108 C-43.34 107.67 -42.68 107.34 -42 107 C-41.35 104.98 -41.35 104.98 -41 103 C-40.34 103 -39.68 103 -39 103 C-38.67 101.02 -38.34 99.04 -38 97 C-38.66 96.67 -39.32 96.34 -40 96 C-39.01 96 -38.02 96 -37 96 C-36.31 93.51 -36 91.62 -36 89 C-35.34 89 -34.68 89 -34 89 C-33.9 88.15 -33.79 87.31 -33.69 86.44 C-32.93 82.66 -31.56 79.52 -30 76 C-29.63 74.68 -29.27 73.35 -29 72 C-28.34 72 -27.68 72 -27 72 C-27.09 70.33 -27.09 70.33 -27.19 68.62 C-27.13 67.43 -27.06 66.23 -27 65 C-26.01 64.34 -25.02 63.68 -24 63 C-23.75 60.42 -23.75 60.42 -24 58 C-23.34 58 -22.68 58 -22 58 C-22.03 56.82 -22.03 56.82 -22.06 55.62 C-22 53 -22 53 -21 51 C-20.34 51 -19.68 51 -19 51 C-18.88 49.7 -18.75 48.4 -18.62 47.06 C-18.41 44.85 -18.41 44.85 -18 43 C-17.34 42.67 -16.68 42.34 -16 42 C-15.39 39.91 -15.39 39.91 -15 37.5 C-14.56 35.03 -14.56 35.03 -14 33 C-13.34 32.67 -12.68 32.34 -12 32 C-12 30.35 -12 28.7 -12 27 C-11.34 27 -10.68 27 -10 27 C-10 25.68 -10 24.36 -10 23 C-9.34 23 -8.68 23 -8 23 C-7.88 22.4 -7.76 21.79 -7.63 21.17 C-7.47 20.37 -7.3 19.57 -7.12 18.75 C-6.88 17.57 -6.88 17.57 -6.63 16.36 C-6 14 -6 14 -4.93 11.89 C-3.78 9.9 -3.78 9.9 -4 7 C-2.69 5.32 -1.35 3.65 0 2 C0 1.34 0 0.68 0 0 Z M-47 200 C-47 201.32 -47 202.64 -47 204 C-47.66 204 -48.32 204 -49 204 C-49.25 204.93 -49.5 205.86 -49.75 206.81 C-51.91 214.33 -54.74 221.56 -57.99 228.66 C-59.54 232.25 -60.8 235.93 -62.07 239.62 C-63 242 -63 242 -65 245 C-65.45 247.28 -65.45 247.28 -65.62 249.69 C-65.7 250.5 -65.77 251.3 -65.85 252.14 C-65.93 253.06 -65.93 253.06 -66 254 C-66.66 254 -67.32 254 -68 254 C-68.16 254.59 -68.32 255.19 -68.48 255.8 C-70.11 261.58 -72.24 266.84 -74.8 272.26 C-76.3 275.7 -77.31 279.18 -78.32 282.79 C-79.22 285.7 -80.61 288.29 -82 291 C-82.46 292.7 -82.46 292.7 -82.94 294.44 C-83.8 297.33 -84.52 299.03 -86.06 301.5 C-88.2 305 -88.67 307.93 -89 312 C-89.66 312 -90.32 312 -91 312 C-91.08 312.95 -91.17 313.9 -91.25 314.88 C-91.96 319.8 -93.58 324.65 -96 329 C-96.99 329.33 -97.98 329.66 -99 330 C-98.01 332.48 -98.01 332.48 -97 335 C-97.66 335 -98.32 335 -99 335 C-99 336.65 -99 338.3 -99 340 C-99.66 340 -100.32 340 -101 340 C-102.83 343.13 -103.55 346.27 -104.36 349.78 C-105.06 352.22 -106.04 354.39 -107.12 356.69 C-108.65 359.94 -109.47 362.34 -109 366 C-109.66 366 -110.32 366 -111 366 C-111.65 367.56 -112.3 369.12 -112.94 370.69 C-113.3 371.56 -113.66 372.43 -114.03 373.32 C-115.05 375.93 -115.05 375.93 -115.49 378.45 C-117.17 386.84 -121.34 394.9 -124.94 402.62 C-126.12 405.16 -126.12 405.16 -127.19 408.56 C-128 411 -128 411 -130 413 C-130.57 414.89 -130.57 414.89 -130.94 417.06 C-131.91 421.86 -133.37 426.39 -135 431 C-135.66 431 -136.32 431 -137 431 C-137.14 431.87 -137.29 432.73 -137.44 433.62 C-137.96 436.75 -138.48 439.87 -139 443 C-139.66 443 -140.32 443 -141 443 C-141.14 444.07 -141.29 445.14 -141.44 446.25 C-141.84 448.92 -142.28 451.41 -143 454 C-143.66 454 -144.32 454 -145 454 C-145.16 454.68 -145.32 455.36 -145.48 456.05 C-146.97 462.01 -148.95 467.12 -151.81 472.54 C-153.35 475.73 -154.3 478.95 -155.25 482.35 C-156.1 485.36 -157.03 488.34 -158 491.31 C-158.46 492.76 -158.46 492.76 -158.94 494.24 C-160.02 497.06 -161.43 499.42 -163 502 C-163.57 503.48 -164.09 504.98 -164.56 506.5 C-165.35 509.01 -166.16 511.39 -167.19 513.81 C-168.23 516.24 -168.23 516.24 -168 520 C-168.66 520 -169.32 520 -170 520 C-170.33 521.98 -170.66 523.96 -171 526 C-168.62 527.61 -168.62 527.61 -166 529 C-165.34 528.67 -164.68 528.34 -164 528 C-161 527.91 -158.01 527.87 -155.01 527.89 C-154.07 527.89 -153.12 527.89 -152.15 527.89 C-148.97 527.89 -145.79 527.89 -142.62 527.9 C-140.34 527.9 -138.07 527.91 -135.8 527.91 C-130.9 527.91 -126 527.92 -121.1 527.92 C-113.36 527.94 -105.61 527.94 -97.87 527.95 C-87.02 527.96 -76.17 527.97 -65.32 527.98 C-64.63 527.98 -63.94 527.98 -63.23 527.98 C-57.64 527.99 -52.05 528 -46.46 528 C-41.58 528.01 -36.69 528.01 -31.81 528.02 C-31.12 528.02 -30.43 528.02 -29.73 528.02 C-18.27 528.04 -6.81 528.05 4.65 528.05 C12.36 528.06 20.06 528.07 27.76 528.08 C32.55 528.09 37.33 528.09 42.12 528.09 C44.34 528.1 46.57 528.1 48.8 528.11 C51.82 528.11 54.85 528.11 57.88 528.11 C58.77 528.12 59.66 528.12 60.58 528.12 C63.97 528.12 66.76 528.08 70 527 C71.69 518.76 71.25 509.81 68 502 C67.67 502 67.34 502 67 502 C66.73 500.82 66.46 499.65 66.19 498.44 C65.36 495.14 64.26 492.15 62.85 489.05 C61.75 486.39 60.89 483.68 60 480.94 C58.63 476.74 57.01 472.94 55 469 C54.7 467.95 54.4 466.91 54.1 465.83 C52.95 461.81 51.56 457.96 50.06 454.06 C49.55 452.72 49.04 451.38 48.54 450.04 C47.78 448.05 47.02 446.06 46.26 444.08 C44.53 439.56 42.99 434.99 41.5 430.39 C39.07 422.89 36.56 415.64 33.12 408.54 C31.35 404.52 30.2 400.33 28.96 396.12 C27.86 392.54 26.51 389.13 25.07 385.68 C23.29 381.24 21.74 376.71 20.15 372.2 C19.44 370.24 18.71 368.28 17.94 366.34 C17.07 364.18 16.33 362.03 15.62 359.81 C14.24 355.6 12.64 351.51 10.97 347.4 C8.91 342.3 7.04 337.22 5.5 331.94 C4.5 328.52 3.34 325.29 1.88 322.03 C-1.48 314.31 -4.33 306.54 -6.23 298.34 C-7.08 295.75 -8.35 294.14 -10 292 C-10.44 290.2 -10.88 288.4 -11.28 286.59 C-12.23 283.19 -13.54 279.95 -14.88 276.69 C-15.14 276.04 -15.4 275.39 -15.68 274.72 C-16.2 273.43 -16.73 272.13 -17.26 270.84 C-22.32 258.3 -22.32 258.3 -23 252 C-23.66 252 -24.32 252 -25 252 C-25.12 251.39 -25.24 250.77 -25.37 250.14 C-25.53 249.33 -25.7 248.52 -25.88 247.69 C-26.04 246.89 -26.2 246.09 -26.37 245.26 C-26.94 242.75 -26.94 242.75 -29 240 C-29.14 239.24 -29.29 238.47 -29.44 237.69 C-29.9 234.89 -29.9 234.89 -31.44 232.19 C-32.91 229.19 -33.72 226.37 -34.48 223.13 C-36.26 215.84 -38.81 208.27 -43 202 C-45.05 200.7 -45.05 200.7 -47 200 Z M-100 332 C-99 334 -99 334 -99 334 Z M337.5 392.54 C332.09 393.25 326.69 393.37 321.25 393.5 C306.21 393.49 306.21 393.49 292 397.5 C288.93 399.04 286.51 399.6 283.12 400.06 C275.35 401.15 268.05 403.15 260.69 405.81 C259.63 406.17 259.63 406.17 258.56 406.53 C255.43 407.66 253.2 408.8 250.85 411.19 C249.6 415.33 251.06 418.32 252.69 422.12 C252.97 422.84 253.25 423.56 253.54 424.29 C254.81 427.43 256.12 430.18 258 433 C257.96 433.74 257.92 434.49 257.88 435.25 C258.05 439.13 260.02 441.78 262 445 C264.31 449.26 265.68 453.34 267 458 C267.66 458.99 268.32 459.98 269 461 C269.41 463.26 269.41 463.26 269.62 465.69 C269.7 466.5 269.77 467.3 269.85 468.14 C269.93 469.06 269.93 469.06 270 470 C270.66 470 271.32 470 272 470 C272.66 472.64 273.32 475.28 274 478 C274.66 478 275.32 478 276 478 C276.1 478.68 276.21 479.36 276.31 480.06 C276.97 482.89 277.99 485.33 279.18 487.97 C280.13 490.32 280.81 492.69 281.5 495.12 C282.3 497.91 283 500.01 284.5 502.5 C286.44 505.73 287.23 509.04 288.24 512.64 C288.95 515.15 288.95 515.15 290.62 517.69 C292.43 520.72 292.66 523.52 293 527 C293.66 527 294.32 527 295 527 C295 528.32 295 529.64 295 531 C295.66 531 296.32 531 297 531 C296.94 532.26 296.88 533.52 296.81 534.81 C296.71 538.06 296.71 538.06 298.44 540.69 C298.95 541.12 299.47 541.55 300 542 C300.69 544.69 300.69 544.69 301 547 C301.66 547 302.32 547 303 547 C303.04 547.6 303.07 548.21 303.11 548.83 C303.51 553.61 303.94 556.23 307 560 C307.8 562.1 308.45 564.23 309.12 566.38 C311.35 573.03 314.27 579.46 317.25 585.81 C318.95 589.58 319.65 592.89 320 597 C320.66 597 321.32 597 322 597 C322.17 597.76 322.17 597.76 322.35 598.54 C323.23 601.88 324.3 605.15 325.38 608.44 C325.69 609.42 325.69 609.42 326.01 610.42 C327.28 614.29 328.89 617.54 331 621 C331 622.67 331 624.33 331 626 C331.97 627.35 332.97 628.69 334 630 C334.69 632.75 334.69 632.75 335 635 C335.66 635 336.32 635 337 635 C337.08 635.64 337.16 636.28 337.25 636.94 C337.91 639.62 338.72 641.7 339.88 644.19 C341.77 648.3 343.1 652.42 344.34 656.77 C345.29 659.99 346.5 663 348 666 C348.66 666 349.32 666 350 666 C350.58 664.82 351.15 663.65 351.75 662.44 C353.13 659.66 354.59 656.97 356.19 654.31 C357.79 651.38 358.6 649.28 359 646 C359.99 645.67 360.98 645.34 362 645 C362.1 644.07 362.21 643.14 362.31 642.19 C363.05 638.76 363.67 638.33 366 636 C366.25 633.37 366.25 633.37 366 631 C366.99 631 367.98 631 369 631 C369.29 629.87 369.58 628.73 369.88 627.56 C370.43 625.8 370.43 625.8 371 624 C371.66 623.67 372.32 623.34 373 623 C373.33 621.85 373.66 620.69 374 619.5 C374.33 618.35 374.66 617.19 375 616 C375.66 615.67 376.32 615.34 377 615 C377.68 613 378.35 611 379 609 C379.66 608.34 380.32 607.68 381 607 C381.7 605.68 382.37 604.35 383 603 C383.37 602.38 383.74 601.76 384.12 601.12 C385.27 598.35 385.14 595.97 385 593 C385.62 592.75 386.24 592.5 386.88 592.25 C389.44 590.74 389.76 589.66 391 587 C391.81 585.58 392.62 584.16 393.44 582.75 C395.43 579.2 396.96 575.69 398.32 571.86 C399.7 568.11 401.17 564.83 404 562 C404.65 559.43 404.65 559.43 405 557 C405.66 557 406.32 557 407 557 C411.22 548.3 411.22 548.3 413 539 C413.99 538.67 414.98 538.34 416 538 C418.04 534.94 419.06 532.19 420.22 528.74 C421 527 421 527 423 526 C423.33 524.85 423.66 523.69 424 522.5 C424.33 521.35 424.66 520.19 425 519 C425.66 518.67 426.32 518.34 427 518 C427.71 516.01 428.37 514.01 429 512 C430.1 509.4 431.25 507.7 433.06 505.5 C434.97 503.04 435.38 501.93 436 499 C436.52 498.01 437.03 497.02 437.56 496 C439.29 492.95 439.29 492.95 439 489 C439.99 489 440.98 489 442 489 C442.29 488.05 442.58 487.1 442.88 486.12 C444 483 444 483 446 481 C446.78 479.24 446.78 479.24 447.44 477.25 C450.64 468.36 450.64 468.36 454 465 C456.57 460.87 458.18 457.81 459 453 C459.99 452.01 459.99 452.01 461 451 C461.4 449.01 461.74 447.01 462 445 C462.99 444.67 463.98 444.34 465 444 C467.5 439.61 470 435.11 470 430 C470.99 430 471.98 430 473 430 C473.45 428.76 473.91 427.52 474.38 426.25 C475.22 423.98 476.08 421.85 477.19 419.69 C478.22 417.86 478.22 417.86 478 415 C478.99 414.67 479.98 414.34 481 414 C481 412.02 481 410.04 481 408 C481.99 408 482.98 408 484 408 C485.35 405.29 485.07 402.99 485 400 C485.99 399.67 486.98 399.34 488 399 C488.04 396.67 488.04 394.33 488 392 C486.31 390.31 484.19 390.87 481.88 390.87 C480.76 390.86 479.65 390.86 478.51 390.85 C476.66 390.85 476.66 390.85 474.78 390.85 C473.49 390.85 472.2 390.85 470.88 390.84 C467.33 390.84 463.78 390.83 460.23 390.83 C458.01 390.83 455.78 390.83 453.56 390.83 C445.79 390.82 438.01 390.81 430.24 390.81 C423.02 390.82 415.81 390.8 408.6 390.79 C402.39 390.78 396.18 390.77 389.97 390.77 C386.27 390.77 382.57 390.77 378.87 390.76 C358.13 390.66 358.13 390.66 337.5 392.54 Z M247 409 C248 412 248 412 248 412 Z M106 611 C107 613 107 613 107 613 Z M457 892 C458 895 458 895 458 895 Z " fill="#FA0302" transform="translate(402,7)"/>
<path d="M0 0 C11.27 -0.05 22.55 -0.08 33.82 -0.1 C39.06 -0.11 44.29 -0.13 49.53 -0.15 C54.58 -0.17 59.63 -0.18 64.68 -0.19 C66.61 -0.19 68.54 -0.2 70.47 -0.21 C73.16 -0.23 75.86 -0.23 78.56 -0.23 C79.76 -0.24 79.76 -0.24 80.98 -0.25 C88.06 -0.22 88.06 -0.22 91 2 C92.38 5.08 92.38 5.08 93.56 8.81 C95 13.29 96.57 16.99 99 21 C99.74 23 100.43 25.02 101.06 27.06 C102.32 31.13 102.32 31.13 104.06 35 C105 37 105 37 105.44 39.88 C106.07 43.36 107.27 45.83 108.94 48.94 C111.21 53.3 112.79 57.26 114 62 C114.66 62.99 115.32 63.98 116 65 C116.12 66.3 116.25 67.6 116.38 68.94 C116.79 73.01 118.06 74.15 121 77 C121.89 79.16 122.54 81.34 123.21 83.57 C124 86.01 124.98 88.24 126.06 90.56 C127.34 93.34 128.32 95.96 129 98.94 C130.57 105.87 133.64 112.27 136.62 118.69 C138.51 122.76 139.85 126.67 141 131 C141.35 131.66 141.7 132.32 142.06 133 C143 135 143 135 143.38 138.44 C144.09 142.53 145.39 143.85 148 147 C149.89 150.88 150.94 154.53 151.5 158.81 C152.05 162.29 152.54 162.75 155 165 C155.33 166.67 155.67 168.33 156 170 C156.94 171.84 157.87 173.67 158.82 175.5 C162.04 182.34 164.27 189.68 166.56 196.88 C167.75 200.5 169.33 203.78 171.08 207.16 C173.22 211.45 174.28 215.2 174 220 C174.66 220 175.32 220 176 220 C177.59 224.18 178.21 227.53 178 232 C178.66 232 179.32 232 180 232 C180.31 232.85 180.63 233.69 180.95 234.56 C183.08 240.2 185.24 245.69 188.03 251.04 C190.46 255.94 192.45 261.05 193.94 266.31 C196.27 275.82 196.27 275.82 201 284 C201.04 285.67 201.04 287.33 201 289 C201.66 289 202.32 289 203 289 C204.6 292.51 205.22 295.14 205 299 C205.66 299.33 206.32 299.66 207 300 C207.86 302.16 208.64 304.36 209.38 306.56 C210.76 310.65 212.17 314.59 214.25 318.38 C215.71 321.08 216.28 323.25 216.56 326.31 C217.04 330.31 217.34 330.46 220 333 C220.19 336.19 220.19 336.19 220 339 C220.66 339 221.32 339 222 339 C222.4 340.16 222.8 341.32 223.21 342.51 C223.74 344.05 224.28 345.59 224.81 347.12 C225.07 347.89 225.33 348.65 225.6 349.43 C227.13 353.8 228.82 357.9 231 362 C228.45 364.55 226.79 364.24 223.31 364.25 C222.15 364.24 222.15 364.24 220.96 364.23 C219.75 364.23 219.75 364.23 218.53 364.23 C216.83 364.23 215.13 364.22 213.43 364.21 C210.84 364.19 208.26 364.19 205.67 364.19 C204.02 364.18 202.36 364.17 200.71 364.17 C199.94 364.17 199.17 364.17 198.38 364.16 C195.03 364.14 191.88 363.98 188.56 363.5 C184.13 362.88 179.81 362.88 175.35 362.9 C174.45 362.9 173.55 362.91 172.62 362.91 C169.77 362.91 166.92 362.92 164.06 362.94 C162.12 362.94 160.18 362.95 158.23 362.95 C153.49 362.96 148.74 362.98 144 363 C144 362.67 144 362.34 144 362 C129.13 361.07 114.27 360.67 99.38 360.39 C95.45 360.31 91.52 360.22 87.6 360.13 C85.1 360.08 82.6 360.03 80.09 359.99 C78.92 359.96 77.75 359.93 76.54 359.9 C75.46 359.88 74.38 359.87 73.27 359.85 C72.32 359.83 71.37 359.81 70.4 359.79 C67.74 359.83 67.74 359.83 65 362 C64.85 364.49 64.89 366.71 65.07 369.18 C65.12 369.91 65.16 370.63 65.21 371.38 C65.35 373.73 65.52 376.08 65.69 378.44 C65.79 380.04 65.9 381.64 66 383.25 C66 401.14 66 401.14 70 418 C70.15 420.84 70.25 423.65 70.3 426.49 C70.32 427.37 70.34 428.24 70.36 429.15 C70.42 432.06 70.48 434.97 70.54 437.88 C70.58 439.9 70.62 441.91 70.67 443.93 C70.78 449.24 70.89 454.55 71 459.86 C71.11 465.27 71.22 470.69 71.34 476.11 C71.56 486.74 71.78 497.37 72 508 C71.01 508 70.02 508 69 508 C68.34 506.35 67.68 504.7 67 503 C66.67 503 66.34 503 66 503 C65.89 502.43 65.78 501.86 65.67 501.28 C64.78 496.94 63.72 493.05 61.85 489.02 C60.73 486.37 59.88 483.67 59 480.94 C57.63 476.74 56.01 472.94 54 469 C53.7 467.95 53.4 466.91 53.1 465.83 C51.95 461.81 50.56 457.96 49.06 454.06 C48.55 452.72 48.04 451.38 47.54 450.04 C46.78 448.05 46.02 446.06 45.26 444.08 C43.53 439.56 41.99 434.99 40.5 430.39 C38.07 422.89 35.56 415.64 32.12 408.54 C30.35 404.52 29.2 400.33 27.96 396.12 C26.86 392.54 25.51 389.13 24.07 385.68 C22.29 381.24 20.74 376.71 19.15 372.2 C18.44 370.24 17.71 368.28 16.94 366.34 C16.07 364.18 15.33 362.03 14.62 359.81 C13.24 355.6 11.64 351.51 9.97 347.4 C7.91 342.3 6.04 337.22 4.5 331.94 C3.5 328.52 2.34 325.29 0.88 322.03 C-2.48 314.31 -5.33 306.54 -7.23 298.34 C-8.08 295.75 -9.35 294.14 -11 292 C-11.44 290.2 -11.88 288.4 -12.28 286.59 C-13.23 283.19 -14.54 279.95 -15.88 276.69 C-16.14 276.04 -16.4 275.39 -16.67 274.72 C-17.2 273.43 -17.73 272.13 -18.25 270.84 C-23.61 257.64 -23.61 257.64 -23 252 C-23.66 252 -24.32 252 -25 252 C-25.65 250.44 -26.3 248.88 -26.94 247.31 C-27.3 246.44 -27.66 245.57 -28.03 244.68 C-29.19 241.47 -30 238.43 -30 235 C-30.66 234.67 -31.32 234.34 -32 234 C-33.69 230.52 -34.53 226.91 -35.44 223.17 C-38.41 210.58 -38.41 210.58 -46 201 C-46.33 201.99 -46.66 202.98 -47 204 C-47.66 204 -48.32 204 -49 204 C-48.95 204.87 -48.91 205.74 -48.86 206.64 C-49.01 210.25 -49.79 212.52 -51.25 215.81 C-51.71 216.86 -52.17 217.91 -52.64 218.98 C-53.45 220.79 -54.27 222.59 -55.08 224.39 C-55.57 225.47 -55.57 225.47 -56.06 226.56 C-56.38 227.27 -56.7 227.97 -57.03 228.7 C-58.54 232.28 -59.8 235.94 -61.07 239.62 C-62 242 -62 242 -64 245 C-64.37 246.99 -64.71 248.99 -65 251 C-65.33 251.99 -65.66 252.98 -66 254 C-66.66 254 -67.32 254 -68 254 C-67.95 254.72 -67.91 255.45 -67.86 256.2 C-68.02 259.34 -68.77 261.08 -70.19 263.88 C-72.94 269.63 -74.88 275.45 -76.79 281.52 C-77.95 284.86 -79.4 287.86 -81 291 C-81.46 292.7 -81.46 292.7 -81.94 294.44 C-82.95 297.84 -84.23 300.24 -86.05 303.22 C-87.56 306.04 -88.24 308.91 -89 312 C-89.66 312 -90.32 312 -91 312 C-90.92 312.95 -90.83 313.9 -90.75 314.88 C-90.75 319.87 -92.38 324.77 -95 329 C-97.14 329.79 -97.14 329.79 -99 330 C-98.34 330.33 -97.68 330.66 -97 331 C-97 332.32 -97 333.64 -97 335 C-97.66 335 -98.32 335 -99 335 C-99 336.65 -99 338.3 -99 340 C-99.66 340 -100.32 340 -101 340 C-101.17 340.76 -101.34 341.52 -101.52 342.31 C-102.9 348.22 -104.54 353.6 -107.15 359.09 C-108.16 361.35 -108.68 363.55 -109 366 C-109.66 366 -110.32 366 -111 366 C-111.12 366.87 -111.25 367.73 -111.38 368.62 C-113.53 380.25 -118.95 392.06 -123.97 402.72 C-125.13 405.18 -125.13 405.18 -126.19 408.56 C-127 411 -127 411 -129 413 C-129.57 414.96 -129.57 414.96 -129.94 417.19 C-130.96 422.2 -132.71 426.43 -135 431 C-135.66 431 -136.32 431 -137 431 C-136.94 432.86 -136.94 432.86 -136.88 434.75 C-136.86 438.02 -137.14 440.21 -139 443 C-139.66 443 -140.32 443 -141 443 C-140.96 444.07 -140.92 445.14 -140.88 446.25 C-140.99 449.66 -141.21 451.21 -143 454 C-143.66 454 -144.32 454 -145 454 C-144.94 454.68 -144.88 455.36 -144.81 456.06 C-145.06 459.87 -146.39 462.55 -148 466 C-151.31 473.24 -153.61 480.8 -156.04 488.37 C-156.38 489.41 -156.71 490.44 -157.06 491.51 C-157.36 492.44 -157.66 493.38 -157.97 494.34 C-159.05 497.12 -160.42 499.48 -162 502 C-162.86 504.12 -162.86 504.12 -163.5 506.25 C-163.74 507.02 -163.99 507.78 -164.24 508.57 C-164.49 509.37 -164.74 510.18 -165 511 C-165.56 512.69 -166.12 514.38 -166.69 516.06 C-166.94 516.82 -167.19 517.57 -167.45 518.35 C-167.63 518.89 -167.81 519.44 -168 520 C-168.66 520 -169.32 520 -170 520 C-170 521.98 -170 523.96 -170 526 C-168.35 526.66 -166.7 527.32 -165 528 C-164.67 527.67 -164.34 527.34 -164 527 C-161.03 526.9 -158.07 526.87 -155.1 526.87 C-154.15 526.87 -153.21 526.87 -152.23 526.87 C-149.04 526.86 -145.85 526.87 -142.65 526.87 C-140.37 526.87 -138.09 526.87 -135.82 526.87 C-129.6 526.86 -123.39 526.86 -117.18 526.87 C-110.7 526.87 -104.21 526.87 -97.72 526.86 C-86.12 526.86 -74.52 526.87 -62.93 526.87 C-52.41 526.88 -41.89 526.87 -31.37 526.87 C-19.16 526.86 -6.96 526.86 5.25 526.87 C11.71 526.87 18.18 526.87 24.64 526.86 C30.72 526.86 36.8 526.86 42.88 526.87 C45.12 526.87 47.35 526.87 49.59 526.87 C52.63 526.86 55.67 526.87 58.72 526.87 C59.61 526.87 60.5 526.87 61.42 526.87 C62.23 526.87 63.05 526.87 63.89 526.87 C64.94 526.87 64.94 526.87 66.02 526.87 C68.15 527.01 69.97 527.3 72 528 C73.87 531.4 74.26 534.36 74.27 538.2 C74.27 539.16 74.27 540.12 74.27 541.11 C74.27 542.11 74.26 543.1 74.25 544.12 C74.26 545.13 74.27 546.13 74.27 547.16 C74.27 548.6 74.27 548.6 74.27 550.07 C74.26 550.94 74.26 551.82 74.26 552.72 C74 555 74 555 72 558 C70.11 558.37 70.11 558.37 67.76 558.37 C66.41 558.38 66.41 558.38 65.04 558.39 C64.05 558.38 63.06 558.37 62.04 558.36 C60.99 558.36 59.95 558.37 58.87 558.37 C55.34 558.37 51.8 558.36 48.27 558.34 C45.75 558.34 43.23 558.34 40.71 558.34 C35.26 558.34 29.82 558.33 24.38 558.32 C16.51 558.29 8.64 558.28 0.77 558.28 C-11.99 558.27 -24.76 558.25 -37.53 558.23 C-49.93 558.2 -62.33 558.18 -74.73 558.16 C-75.5 558.16 -76.26 558.16 -77.05 558.16 C-80.88 558.16 -84.72 558.15 -88.55 558.15 C-120.37 558.12 -152.18 558.07 -184 558 C-184.2 558.61 -184.41 559.22 -184.61 559.84 C-186.08 564.23 -187.54 568.61 -189 573 C-189.66 573 -190.32 573 -191 573 C-190.94 574.05 -190.88 575.1 -190.81 576.19 C-191.02 580.38 -191.82 581.53 -194 585 C-194.49 586.53 -194.95 588.07 -195.38 589.62 C-196.45 593.44 -197.8 596.91 -199.5 600.5 C-201.5 604.74 -202.93 608.89 -204.19 613.39 C-205.75 618.4 -207.91 623.19 -210 628 C-210.6 629.42 -211.21 630.83 -211.81 632.25 C-212.2 633.16 -212.6 634.07 -213 635 C-213.66 635 -214.32 635 -215 635 C-214.79 635.6 -214.59 636.2 -214.38 636.81 C-214 639 -214 639 -216 642 C-216.66 642 -217.32 642 -218 642 C-217.92 643.13 -217.84 644.27 -217.75 645.44 C-217.74 649.81 -219.03 652.89 -220.93 656.78 C-221.93 658.85 -222.73 660.9 -223.5 663.06 C-224.47 665.75 -225.61 668.14 -227 670.62 C-229.48 675.39 -230.26 680.45 -231.29 685.68 C-232.14 689.67 -233.46 693.23 -235 697 C-235.74 699 -236.46 701 -237.19 703 C-237.53 703.95 -237.88 704.9 -238.23 705.88 C-238.48 706.58 -238.74 707.28 -239 708 C-239.66 708 -240.32 708 -241 708 C-240.97 708.86 -240.93 709.71 -240.89 710.6 C-240.87 711.74 -240.84 712.88 -240.81 714.06 C-240.78 715.19 -240.74 716.31 -240.71 717.47 C-240.99 720.82 -241.8 722.89 -243.21 725.88 C-244.99 730.65 -245.37 735.86 -246.06 740.88 C-246.38 743.14 -246.71 745.41 -247.04 747.68 C-247.19 748.78 -247.35 749.87 -247.51 751 C-247.92 753.48 -248.45 755.83 -249.1 758.25 C-250.58 764.63 -250.37 771.24 -250.37 777.75 C-250.37 780.03 -250.41 782.31 -250.45 784.59 C-250.54 796.16 -249.13 807.08 -244.36 817.77 C-243 821 -243 821 -243 824 C-242.34 824 -241.68 824 -241 824 C-240.33 825.46 -239.66 826.92 -239 828.38 C-238.63 829.19 -238.26 830 -237.88 830.84 C-237 833 -237 833 -237 835 C-236.4 835.27 -235.8 835.54 -235.19 835.81 C-233.02 836.99 -231.72 838.28 -230 840 C-229.34 840 -228.68 840 -228 840 C-227.59 840.76 -227.18 841.53 -226.75 842.31 C-224.53 845.73 -222.73 846.37 -219 848 C-217.39 848.83 -215.79 849.66 -214.19 850.5 C-208.04 853.55 -202.26 855.93 -195.38 856.44 C-189.68 856.86 -184.37 858.4 -178.91 859.96 C-169.38 862.56 -160.36 863.34 -150.51 863.48 C-149.57 863.5 -148.63 863.53 -147.66 863.56 C-146.81 863.57 -145.96 863.59 -145.09 863.6 C-144.4 863.73 -143.71 863.86 -143 864 C-139.45 869.33 -139.84 875.5 -139.81 881.75 C-139.8 883.04 -139.78 884.34 -139.77 885.67 C-140 889 -140 889 -142 892 C-153.04 896.56 -167.83 894.19 -179.31 892.38 C-180.2 892.25 -181.09 892.13 -182 892 C-182.33 892.33 -182.66 892.66 -183 893 C-186 893.03 -188.97 893 -191.96 892.91 C-192.86 892.89 -193.76 892.87 -194.69 892.85 C-196.6 892.8 -198.52 892.75 -200.43 892.7 C-203.36 892.63 -206.28 892.56 -209.21 892.49 C-211.07 892.45 -212.92 892.4 -214.77 892.35 C-215.65 892.33 -216.53 892.31 -217.43 892.29 C-218.25 892.27 -219.07 892.25 -219.91 892.22 C-220.63 892.2 -221.35 892.18 -222.09 892.16 C-224 892 -224 892 -227 891 C-228.94 890.89 -230.89 890.83 -232.83 890.81 C-234.63 890.79 -234.63 890.79 -236.46 890.76 C-237.76 890.75 -239.05 890.73 -240.38 890.72 C-241.72 890.7 -243.06 890.68 -244.4 890.66 C-249.36 890.59 -254.33 890.53 -259.29 890.47 C-263.49 890.42 -267.69 890.37 -271.89 890.31 C-273.87 890.28 -275.84 890.26 -277.82 890.24 C-279.6 890.22 -279.6 890.22 -281.43 890.19 C-282.48 890.18 -283.54 890.16 -284.62 890.15 C-287 890 -287 890 -288 889 C-290.16 888.9 -292.33 888.87 -294.5 888.88 C-295.69 888.87 -296.87 888.87 -298.09 888.87 C-300.89 888.67 -300.89 888.67 -302 890 C-305.08 890.15 -308.14 890.24 -311.21 890.28 C-312.14 890.3 -313.07 890.32 -314.02 890.34 C-316.99 890.4 -319.97 890.45 -322.94 890.5 C-326.84 890.57 -330.75 890.64 -334.65 890.72 C-336.01 890.74 -336.01 890.74 -337.4 890.76 C-338.23 890.78 -339.07 890.79 -339.93 890.81 C-341.04 890.83 -341.04 890.83 -342.17 890.85 C-344.1 890.89 -344.1 890.89 -346 892 C-347.47 892.1 -348.94 892.14 -350.42 892.15 C-351.79 892.15 -351.79 892.15 -353.19 892.16 C-354.18 892.17 -355.17 892.17 -356.19 892.17 C-357.2 892.17 -358.21 892.17 -359.26 892.18 C-361.4 892.18 -363.55 892.19 -365.69 892.19 C-368.99 892.19 -372.28 892.21 -375.57 892.22 C-377.65 892.23 -379.73 892.23 -381.81 892.23 C-382.8 892.24 -383.79 892.24 -384.81 892.25 C-385.73 892.25 -386.64 892.25 -387.58 892.24 C-388.39 892.24 -389.2 892.25 -390.03 892.25 C-392 892 -392 892 -394 890 C-395.28 886.45 -395.17 882.86 -395.19 879.12 C-395.2 877.93 -395.22 876.74 -395.23 875.51 C-395 872 -394.24 869.28 -393 866 C-393 865.67 -393 865.34 -393 865 C-391.76 864.71 -390.52 864.42 -389.25 864.12 C-386.26 863.38 -383.72 862.47 -381 861 C-380.34 861 -379.68 861 -379 861 C-378.67 860.34 -378.34 859.68 -378 859 C-377.01 859.33 -376.02 859.66 -375 860 C-375 859.34 -375 858.68 -375 858 C-374.01 858 -373.02 858 -372 858 C-371.67 857.34 -371.34 856.68 -371 856 C-369 855.33 -367 854.67 -365 854 C-365 853.34 -365 852.68 -365 852 C-364.34 852 -363.68 852 -363 852 C-363 851.34 -363 850.68 -363 850 C-361.02 849.67 -359.04 849.34 -357 849 C-356.67 848.01 -356.34 847.02 -356 846 C-350.53 841 -350.53 841 -348 841 C-347.67 840.01 -347.34 839.02 -347 838 C-345.33 836.67 -343.67 835.33 -342 834 C-341.67 833.01 -341.34 832.02 -341 831 C-340.01 831 -339.02 831 -338 831 C-337.5 828.53 -337.5 828.53 -337 826 C-336.34 826 -335.68 826 -335 826 C-334.57 825.07 -334.57 825.07 -334.12 824.12 C-333 822 -333 822 -331 820 C-330.57 819.24 -330.13 818.47 -329.69 817.69 C-328 815 -328 815 -325.38 812.5 C-322.79 809.78 -322.58 808.57 -322 805 C-321.01 804.34 -320.02 803.68 -319 803 C-317.66 800.69 -316.85 798.54 -316 796 C-315.34 796 -314.68 796 -314 796 C-313.86 795.42 -313.71 794.85 -313.56 794.25 C-313.04 792.17 -312.52 790.08 -312 788 C-311.34 788 -310.68 788 -310 788 C-309.67 787.01 -309.34 786.02 -309 785 C-308.34 784.01 -307.68 783.02 -307 782 C-307.66 781.67 -308.32 781.34 -309 781 C-308.01 781 -307.02 781 -306 781 C-305.86 780.42 -305.73 779.85 -305.59 779.25 C-305.03 777.1 -304.38 775.03 -303.62 772.94 C-303.39 772.27 -303.16 771.59 -302.91 770.9 C-301.91 768.8 -300.72 767.54 -299 766 C-299.66 765.67 -300.32 765.34 -301 765 C-300.01 765 -299.02 765 -298 765 C-297.01 761.04 -296.02 757.08 -295 753 C-294.34 753 -293.68 753 -293 753 C-292 749.42 -292 749.42 -293 746 C-292.34 746 -291.68 746 -291 746 C-291 745.01 -291 744.02 -291 743 C-290.34 742.67 -289.68 742.34 -289 742 C-288.39 739.91 -288.39 739.91 -288 737.5 C-287.56 735.03 -287.56 735.03 -287 733 C-286.34 732.67 -285.68 732.34 -285 732 C-285 730.35 -285 728.7 -285 727 C-284.34 727 -283.68 727 -283 727 C-283 726.01 -283 725.02 -283 724 C-282.34 724 -281.68 724 -281 724 C-280.67 722.68 -280.34 721.36 -280 720 C-280.66 719.67 -281.32 719.34 -282 719 C-281.34 719 -280.68 719 -280 719 C-279.73 718.01 -279.46 717.02 -279.19 716 C-278.23 712.63 -277.05 709.39 -275.79 706.13 C-274.65 703.05 -273.7 699.92 -272.75 696.79 C-272 695 -272 695 -270 694 C-269.25 692.07 -269.25 692.07 -269 690 C-269.33 689.34 -269.66 688.68 -270 688 C-269.34 688 -268.68 688 -268 688 C-268 687.01 -268 686.02 -268 685 C-267.34 684.67 -266.68 684.34 -266 684 C-265.39 681.68 -265.39 681.68 -265 679 C-264.56 676.25 -264.56 676.25 -264 674 C-263.34 673.67 -262.68 673.34 -262 673 C-261.31 670.65 -261.31 670.65 -260.88 667.94 C-260.71 667.02 -260.54 666.1 -260.37 665.15 C-260.25 664.44 -260.12 663.73 -260 663 C-259.34 663 -258.68 663 -258 663 C-258.06 662.26 -258.12 661.51 -258.19 660.75 C-257.96 657.49 -257.11 656.43 -255 654 C-254.34 653.01 -253.68 652.02 -253 651 C-253.66 650.67 -254.32 650.34 -255 650 C-254.34 650 -253.68 650 -253 650 C-253 648.68 -253 647.36 -253 646 C-251.5 644.25 -251.5 644.25 -250 643 C-250.66 642.67 -251.32 642.34 -252 642 C-251.01 642 -250.02 642 -249 642 C-249.04 641.05 -249.08 640.1 -249.12 639.12 C-249 636 -249 636 -247 634 C-247 632.68 -247 631.36 -247 630 C-246.34 630 -245.68 630 -245 630 C-245 628.68 -245 627.36 -245 626 C-244.34 625.67 -243.68 625.34 -243 625 C-243 623.02 -243 621.04 -243 619 C-242.34 619 -241.68 619 -241 619 C-240.67 617.68 -240.34 616.36 -240 615 C-239.67 615 -239.34 615 -239 615 C-238.34 611.37 -237.68 607.74 -237 604 C-236.34 604 -235.68 604 -235 604 C-234.88 603.37 -234.76 602.75 -234.63 602.1 C-234.38 600.88 -234.38 600.88 -234.12 599.62 C-233.88 598.41 -233.88 598.41 -233.63 597.16 C-233 595 -233 595 -231 593 C-230.39 590.94 -229.99 588.88 -229.56 586.78 C-229.38 586.19 -229.19 585.6 -229 585 C-228.34 584.67 -227.68 584.34 -227 584 C-226.51 582.05 -226.02 580.1 -225.57 578.14 C-224.79 575.21 -223.46 572.66 -222 570 C-222.66 569.67 -223.32 569.34 -224 569 C-223.34 569 -222.68 569 -222 569 C-222 568.01 -222 567.02 -222 566 C-221.34 565.67 -220.68 565.34 -220 565 C-216.92 558.58 -215.03 552.06 -214 545 C-213.34 545 -212.68 545 -212 545 C-211.34 542.03 -210.68 539.06 -210 536 C-209.34 536 -208.68 536 -208 536 C-207.34 533.03 -206.68 530.06 -206 527 C-205.34 527 -204.68 527 -204 527 C-204.33 525.68 -204.66 524.36 -205 523 C-204.34 523 -203.68 523 -203 523 C-203 520.36 -203 517.72 -203 515 C-202.34 515.66 -201.68 516.32 -201 517 C-200.88 516.3 -200.76 515.6 -200.63 514.88 C-200.47 513.97 -200.3 513.06 -200.12 512.12 C-199.88 510.77 -199.88 510.77 -199.63 509.38 C-199 507 -199 507 -197 505 C-196.39 502.94 -195.99 500.88 -195.56 498.78 C-195.38 498.19 -195.19 497.6 -195 497 C-194.34 496.67 -193.68 496.34 -193 496 C-192.67 495.01 -192.34 494.02 -192 493 C-192.66 492.67 -193.32 492.34 -194 492 C-193.01 492 -192.02 492 -191 492 C-191.03 490.79 -191.03 490.79 -191.06 489.56 C-191 487 -191 487 -190 486 C-189.34 485.67 -188.68 485.34 -188 485 C-187.61 483.14 -187.61 483.14 -187.5 481 C-187.34 478.81 -187.34 478.81 -187 477 C-186.34 476.67 -185.68 476.34 -185 476 C-184.28 473.95 -183.57 471.89 -182.93 469.81 C-181.51 465.5 -179.78 461.32 -178.09 457.11 C-176.9 454.01 -176.9 454.01 -176.48 450.67 C-176.32 449.79 -176.16 448.91 -176 448 C-175.34 447.67 -174.68 447.34 -174 447 C-174 445.68 -174 444.36 -174 443 C-173.34 442.67 -172.68 442.34 -172 442 C-172 440.02 -172 438.04 -172 436 C-171.34 436.33 -170.68 436.66 -170 437 C-168.99 433.95 -168.99 433.95 -170 431 C-169.34 431 -168.68 431 -168 431 C-167.67 430.01 -167.34 429.02 -167 428 C-166.35 426.66 -165.68 425.32 -165 424 C-165.66 423.67 -166.32 423.34 -167 423 C-166.34 422.67 -165.68 422.34 -165 422 C-164.27 420.02 -163.6 418.02 -163 416 C-162.34 416 -161.68 416 -161 416 C-160.81 414.36 -160.81 414.36 -160.62 412.69 C-160 409 -160 409 -158 406 C-158.33 405.34 -158.66 404.68 -159 404 C-158.34 404 -157.68 404 -157 404 C-156.67 402.35 -156.34 400.7 -156 399 C-155.34 399 -154.68 399 -154 399 C-153.67 397.02 -153.34 395.04 -153 393 C-153.66 392.67 -154.32 392.34 -155 392 C-154.36 391.61 -153.73 391.22 -153.07 390.82 C-150.49 388.55 -150.33 387.23 -149.88 383.88 C-149.49 381.18 -149.49 381.18 -149 379 C-148.34 378.67 -147.68 378.34 -147 378 C-146.31 375.65 -146.31 375.65 -145.88 372.94 C-145.71 372.02 -145.54 371.1 -145.37 370.15 C-145.25 369.44 -145.12 368.73 -145 368 C-144.34 368 -143.68 368 -143 368 C-142.88 367.36 -142.76 366.72 -142.63 366.07 C-142.38 364.83 -142.38 364.83 -142.12 363.56 C-141.96 362.74 -141.8 361.92 -141.63 361.07 C-141.42 360.38 -141.22 359.7 -141 359 C-140.34 358.67 -139.68 358.34 -139 358 C-138.39 355.68 -138.39 355.68 -138 353 C-137.56 350.25 -137.56 350.25 -137 348 C-136.34 347.67 -135.68 347.34 -135 347 C-134.35 344.98 -134.35 344.98 -134 343 C-134.66 342.67 -135.32 342.34 -136 342 C-135.01 342 -134.02 342 -133 342 C-133 340.68 -133 339.36 -133 338 C-132.34 338 -131.68 338 -131 338 C-130.88 336.87 -130.75 335.73 -130.62 334.56 C-130.32 332.8 -130.32 332.8 -130 331 C-129.34 330.67 -128.68 330.34 -128 330 C-127.27 328.02 -126.6 326.02 -126 324 C-126.66 323.67 -127.32 323.34 -128 323 C-126.67 321.67 -125.33 320.33 -124 319 C-123.38 316.42 -122.98 313.83 -122.56 311.21 C-122.38 310.48 -122.19 309.75 -122 309 C-121.34 308.67 -120.68 308.34 -120 308 C-119.39 306.18 -119.39 306.18 -119 304.06 C-118.4 301.09 -118.21 300.21 -116 298 C-115.26 296.03 -115.26 296.03 -115 294 C-115.33 293.34 -115.66 292.68 -116 292 C-115.34 292 -114.68 292 -114 292 C-114 291.34 -114 290.68 -114 290 C-113.34 289.67 -112.68 289.34 -112 289 C-111.35 286.98 -111.35 286.98 -111 285 C-111.66 284.67 -112.32 284.34 -113 284 C-112.34 283.67 -111.68 283.34 -111 283 C-110.83 282.18 -110.67 281.35 -110.5 280.5 C-110.33 279.68 -110.17 278.85 -110 278 C-109.34 277.67 -108.68 277.34 -108 277 C-107.39 275.18 -107.39 275.18 -107 273.06 C-106.4 270.09 -106.21 269.21 -104 267 C-103.6 265.01 -103.26 263.01 -103 261 C-102.01 261 -101.02 261 -100 261 C-99.67 257.37 -99.34 253.74 -99 250 C-98.34 250 -97.68 250 -97 250 C-96.88 249.29 -96.76 248.58 -96.63 247.85 C-96.47 246.93 -96.3 246.01 -96.12 245.06 C-95.96 244.15 -95.8 243.23 -95.63 242.29 C-95.42 241.53 -95.22 240.78 -95 240 C-94.34 239.67 -93.68 239.34 -93 239 C-92.67 238.01 -92.34 237.02 -92 236 C-92.66 235.67 -93.32 235.34 -94 235 C-93.01 235 -92.02 235 -91 235 C-90.88 234.46 -90.75 233.93 -90.62 233.38 C-89.88 230.54 -88.93 227.78 -88 225 C-87.65 223.67 -87.31 222.34 -87 221 C-86.34 221 -85.68 221 -85 221 C-84.34 216.71 -83.68 212.42 -83 208 C-82.34 208 -81.68 208 -81 208 C-80.67 207.01 -80.34 206.02 -80 205 C-80.66 204.67 -81.32 204.34 -82 204 C-81.01 204 -80.02 204 -79 204 C-79 203.01 -79 202.02 -79 201 C-78.34 201 -77.68 201 -77 201 C-77.33 199.68 -77.66 198.36 -78 197 C-77.34 197 -76.68 197 -76 197 C-76 195.35 -76 193.7 -76 192 C-75.34 192 -74.68 192 -74 192 C-73.34 187.38 -72.68 182.76 -72 178 C-71.34 178.66 -70.68 179.32 -70 180 C-69.88 179.36 -69.76 178.72 -69.63 178.07 C-69.47 177.24 -69.3 176.41 -69.12 175.56 C-68.88 174.33 -68.88 174.33 -68.63 173.07 C-68.42 172.38 -68.22 171.7 -68 171 C-67.34 170.67 -66.68 170.34 -66 170 C-66 168.35 -66 166.7 -66 165 C-65.34 165 -64.68 165 -64 165 C-64 164.01 -64 163.02 -64 162 C-63.34 161.67 -62.68 161.34 -62 161 C-61.39 158.95 -61.39 158.95 -61 156.56 C-60.22 152.22 -60.22 152.22 -58 150 C-57.32 147.8 -57.32 147.8 -56.88 145.38 C-56.71 144.56 -56.54 143.74 -56.37 142.9 C-56.25 142.27 -56.12 141.65 -56 141 C-55.34 141 -54.68 141 -54 141 C-53.34 138.03 -52.68 135.06 -52 132 C-51.34 132 -50.68 132 -50 132 C-50.33 130.35 -50.66 128.7 -51 127 C-50.34 127 -49.68 127 -49 127 C-49 125.02 -49 123.04 -49 121 C-48.34 121 -47.68 121 -47 121 C-46.88 120.37 -46.76 119.75 -46.63 119.1 C-46.47 118.28 -46.3 117.47 -46.12 116.62 C-45.88 115.41 -45.88 115.41 -45.63 114.16 C-45 112 -45 112 -43 110 C-43.33 109.34 -43.66 108.68 -44 108 C-43.34 107.67 -42.68 107.34 -42 107 C-41.35 104.98 -41.35 104.98 -41 103 C-40.34 103 -39.68 103 -39 103 C-38.67 101.02 -38.34 99.04 -38 97 C-38.66 96.67 -39.32 96.34 -40 96 C-39.01 96 -38.02 96 -37 96 C-36.31 93.51 -36 91.62 -36 89 C-35.34 89 -34.68 89 -34 89 C-33.9 88.15 -33.79 87.31 -33.69 86.44 C-32.93 82.66 -31.56 79.52 -30 76 C-29.63 74.68 -29.27 73.35 -29 72 C-28.34 72 -27.68 72 -27 72 C-27.09 70.33 -27.09 70.33 -27.19 68.62 C-27.13 67.43 -27.06 66.23 -27 65 C-26.01 64.34 -25.02 63.68 -24 63 C-23.75 60.42 -23.75 60.42 -24 58 C-23.34 58 -22.68 58 -22 58 C-22.03 56.82 -22.03 56.82 -22.06 55.62 C-22 53 -22 53 -21 51 C-20.34 51 -19.68 51 -19 51 C-18.88 49.7 -18.75 48.4 -18.62 47.06 C-18.41 44.85 -18.41 44.85 -18 43 C-17.34 42.67 -16.68 42.34 -16 42 C-15.39 39.91 -15.39 39.91 -15 37.5 C-14.56 35.03 -14.56 35.03 -14 33 C-13.34 32.67 -12.68 32.34 -12 32 C-12 30.35 -12 28.7 -12 27 C-11.34 27 -10.68 27 -10 27 C-10 25.68 -10 24.36 -10 23 C-9.34 23 -8.68 23 -8 23 C-7.88 22.4 -7.76 21.79 -7.63 21.17 C-7.47 20.37 -7.3 19.57 -7.12 18.75 C-6.88 17.57 -6.88 17.57 -6.63 16.36 C-6 14 -6 14 -4.93 11.89 C-3.78 9.9 -3.78 9.9 -4 7 C-2.69 5.32 -1.35 3.65 0 2 C0 1.34 0 0.68 0 0 Z M-100 332 C-99 334 -99 334 -99 334 Z " fill="#006AFB" transform="translate(402,7)"/>
<path d="M0 0 C3.13 2.36 4.25 5.67 5.63 9.23 C6.17 10.55 6.17 10.55 6.73 11.91 C7.43 13.64 8.12 15.38 8.8 17.13 C9.6 19.24 9.6 19.24 10.63 21.23 C10.57 21.95 10.51 22.67 10.45 23.42 C10.71 27.31 12.63 29.99 14.63 33.23 C16.94 37.49 18.32 41.57 19.63 46.23 C20.29 47.22 20.95 48.21 21.63 49.23 C21.83 51.49 21.83 51.49 21.76 53.92 C21.74 54.73 21.72 55.53 21.7 56.37 C21.68 56.98 21.66 57.6 21.63 58.23 C22.29 58.23 22.95 58.23 23.63 58.23 C24.89 61.14 25.63 63.03 25.63 66.23 C26.29 66.23 26.95 66.23 27.63 66.23 C30.13 71.97 32.56 77.64 34.26 83.67 C35.02 86.37 35.68 88.31 37.13 90.73 C39.07 93.96 39.86 97.26 40.87 100.88 C41.58 103.38 41.58 103.38 43.32 105.92 C45.11 109.08 44.84 111.66 44.63 115.23 C45.29 115.23 45.95 115.23 46.63 115.23 C46.63 116.55 46.63 117.87 46.63 119.23 C47.29 119.23 47.95 119.23 48.63 119.23 C48.63 121.87 48.63 124.51 48.63 127.23 C49.62 127.56 50.61 127.89 51.63 128.23 C51.76 129.2 51.88 130.17 52.01 131.17 C52.21 132.18 52.42 133.19 52.63 134.23 C53.29 134.56 53.95 134.89 54.63 135.23 C55.41 137.66 55.41 137.66 56.13 140.67 C57.05 144.9 57.05 144.9 59.63 148.23 C60.31 149.97 60.31 149.97 60.95 152.11 C63.09 158.83 65.78 165.38 68.84 171.75 C71.15 176.55 72.09 179.89 71.63 185.23 C72.29 185.23 72.95 185.23 73.63 185.23 C75.65 190.12 77.6 195 79.2 200.04 C80.04 202.7 80.84 204.57 82.32 206.98 C83.88 209.65 83.63 211.2 83.63 214.23 C84.13 214.89 84.62 215.55 85.13 216.23 C87 218.72 86.89 220.19 86.63 223.23 C87.29 223.23 87.95 223.23 88.63 223.23 C89.4 225.23 90.17 227.23 90.95 229.23 C91.4 230.42 91.86 231.6 92.33 232.83 C93.33 235.43 94.3 238.05 95.26 240.67 C96.53 244.2 96.53 244.2 98.26 247.23 C100.92 253.05 101.2 257.31 99.2 263.29 C96.83 269.2 93.81 274.74 90.76 280.3 C88.7 284.07 86.78 287.89 84.88 291.73 C80.16 301.27 75.2 310.69 70.26 320.12 C60.21 339.29 60.21 339.29 50.45 358.62 C48.09 363.37 45.63 368.05 43.13 372.73 C40.33 377.99 37.59 383.27 34.95 388.61 C27.4 403.84 19.47 418.89 11.51 433.92 C7.14 442.17 2.96 450.51 -1.17 458.87 C-3.4 463.38 -5.66 467.88 -8.04 472.32 C-8.6 473.38 -8.6 473.38 -9.18 474.47 C-10.37 476.23 -10.37 476.23 -13.37 478.23 C-15.65 478.5 -15.65 478.5 -18.36 478.53 C-19.37 478.55 -20.39 478.57 -21.43 478.58 C-22.53 478.59 -23.62 478.6 -24.75 478.61 C-25.87 478.63 -26.99 478.64 -28.15 478.66 C-31.74 478.71 -35.34 478.75 -38.93 478.79 C-42.53 478.84 -46.12 478.88 -49.72 478.94 C-51.96 478.97 -54.2 478.99 -56.44 479.02 C-57.45 479.03 -58.46 479.04 -59.51 479.06 C-60.4 479.07 -61.29 479.08 -62.21 479.09 C-64.42 479.09 -64.42 479.09 -66.37 480.23 C-68.37 480.39 -70.38 480.48 -72.39 480.55 C-73.65 480.59 -74.91 480.63 -76.2 480.67 C-77.57 480.71 -78.94 480.75 -80.3 480.79 C-81.33 480.82 -81.33 480.82 -82.38 480.86 C-92.48 481.16 -102.58 481.33 -112.68 481.36 C-113.83 481.36 -114.98 481.36 -116.16 481.37 C-117.22 481.37 -118.27 481.37 -119.36 481.36 C-120.74 481.36 -120.74 481.36 -122.15 481.36 C-124.37 481.23 -124.37 481.23 -126.37 480.23 C-127.03 480.56 -127.69 480.89 -128.37 481.23 C-135.68 482.17 -143.01 482.38 -150.37 482.23 C-150.37 481.57 -150.37 480.91 -150.37 480.23 C-152.04 480.32 -152.04 480.32 -153.74 480.42 C-154.94 480.36 -156.13 480.29 -157.37 480.23 C-160.28 475.86 -159.7 471.87 -159.68 466.73 C-159.7 465.77 -159.71 464.8 -159.73 463.81 C-159.73 462.89 -159.73 461.96 -159.73 461.01 C-159.73 460.17 -159.74 459.32 -159.74 458.45 C-159.28 455.72 -158.59 454.85 -156.37 453.23 C-149.59 451.97 -142.67 451.95 -135.79 451.8 C-131.57 451.65 -128.03 451.28 -124.09 449.7 C-120.62 448.33 -118.52 447.89 -114.87 448.04 C-114.01 448.07 -113.16 448.1 -112.27 448.12 C-111.33 448.18 -111.33 448.18 -110.37 448.23 C-110.37 447.57 -110.37 446.91 -110.37 446.23 C-109.56 446.12 -108.75 446.01 -107.92 445.9 C-106.32 445.66 -106.32 445.66 -104.68 445.42 C-103.62 445.27 -102.57 445.12 -101.48 444.96 C-98.24 444.2 -96.12 443.07 -93.37 441.23 C-92.52 440.76 -91.68 440.28 -90.8 439.79 C-88.29 438.32 -88.29 438.32 -86.37 436.11 C-84.04 433.92 -82.49 433.58 -79.37 433.23 C-79.18 432.02 -79.18 432.02 -78.99 430.79 C-78.79 429.95 -78.58 429.1 -78.37 428.23 C-77.71 427.9 -77.05 427.57 -76.37 427.23 C-75.68 425.34 -75.68 425.34 -75.24 423.17 C-75.07 422.43 -74.91 421.7 -74.73 420.95 C-74.61 420.38 -74.49 419.81 -74.37 419.23 C-73.71 419.23 -73.05 419.23 -72.37 419.23 C-72.94 399.04 -74.68 378.8 -83.37 360.23 C-85 356.36 -86.31 352.42 -87.59 348.41 C-88.36 346.25 -89.33 344.28 -90.37 342.23 C-91.07 339.9 -91.73 337.58 -92.37 335.23 C-94.13 328.8 -96.35 322.77 -98.98 316.64 C-101.46 310.56 -103.55 304.35 -105.7 298.16 C-107.66 292.51 -109.73 286.91 -111.84 281.32 C-112.37 279.92 -112.9 278.51 -113.43 277.11 C-113.82 276.07 -113.82 276.07 -114.22 275.01 C-115.55 271.48 -116.83 267.94 -117.99 264.36 C-119.83 258.7 -122.13 253.22 -124.41 247.73 C-126.47 242.7 -128.21 237.69 -129.66 232.46 C-130.3 230.24 -130.3 230.24 -131.32 228.34 C-132.32 226.33 -133.08 224.35 -133.8 222.23 C-134.06 221.49 -134.32 220.75 -134.58 219.98 C-135.11 218.44 -135.63 216.89 -136.16 215.34 C-136.41 214.6 -136.67 213.86 -136.93 213.1 C-137.16 212.43 -137.39 211.76 -137.62 211.07 C-138.41 208.95 -138.41 208.95 -140.37 206.23 C-142.06 200.49 -142.01 193.97 -140.37 188.23 C-141.03 187.9 -141.69 187.57 -142.37 187.23 C-141.71 186.24 -141.05 185.25 -140.37 184.23 C-140.11 182.25 -139.85 180.26 -139.64 178.27 C-139.26 175.45 -138.3 172.91 -137.37 170.23 C-136.85 167.85 -136.38 165.48 -135.93 163.09 C-135.74 162.47 -135.56 161.86 -135.37 161.23 C-134.71 160.9 -134.05 160.57 -133.37 160.23 C-133.39 159.16 -133.41 158.09 -133.43 156.98 C-133.34 151.77 -133.34 151.77 -132.37 149.23 C-131.71 148.9 -131.05 148.57 -130.37 148.23 C-130.01 145.9 -129.68 143.57 -129.37 141.23 C-128.43 138.36 -128.43 138.36 -127.37 136.23 C-126.71 135.9 -126.05 135.57 -125.37 135.23 C-122.46 130.18 -121.23 126.06 -121.37 120.23 C-120.39 119.21 -119.39 118.21 -118.37 117.23 C-117.64 114.12 -117.64 114.12 -117.37 111.23 C-116.71 111.23 -116.05 111.23 -115.37 111.23 C-115.37 110.24 -115.37 109.25 -115.37 108.23 C-114.37 107.23 -113.37 106.23 -112.37 105.23 C-111.41 103.41 -110.51 101.55 -109.68 99.67 C-109.24 98.7 -108.81 97.73 -108.36 96.73 C-107.24 94.37 -107.24 94.37 -107.37 92.23 C-106.38 92.23 -105.39 92.23 -104.37 92.23 C-104.26 91.51 -104.16 90.79 -104.05 90.04 C-103.3 86.96 -102.01 84.93 -100.37 82.23 C-99.87 80.65 -99.87 80.65 -99.37 79.04 C-98.37 76.23 -98.37 76.23 -95.37 74.23 C-95.01 72.9 -94.67 71.57 -94.37 70.23 C-93.71 69.9 -93.05 69.57 -92.37 69.23 C-92.37 68.57 -92.37 67.91 -92.37 67.23 C-91.56 66.76 -90.76 66.28 -89.93 65.79 C-87.08 64.43 -87.08 64.43 -86.37 61.23 C-85.69 60.74 -85.01 60.24 -84.3 59.73 C-83.67 59.24 -83.03 58.74 -82.37 58.23 C-82.37 57.24 -82.37 56.25 -82.37 55.23 C-81.77 54.97 -81.17 54.71 -80.55 54.44 C-78.2 53.14 -77.05 51.93 -75.37 49.86 C-71.64 45.43 -67.59 41.4 -63.46 37.36 C-61.13 35.07 -59.18 32.95 -57.37 30.23 C-56.52 29.9 -55.68 29.57 -54.8 29.23 C-54 28.9 -53.2 28.57 -52.37 28.23 C-51.87 26.75 -51.87 26.75 -51.37 25.23 C-50.81 25.11 -50.25 24.98 -49.68 24.86 C-44.9 23.56 -41.27 19.31 -37.99 15.73 C-36.37 14.23 -36.37 14.23 -34.24 13.23 C-32.01 12.32 -32.01 12.32 -31.37 9.23 C-28.68 8.17 -28.68 8.17 -25.37 7.23 C-23.35 6.62 -21.34 5.97 -19.37 5.23 C-19.04 4.57 -18.71 3.91 -18.37 3.23 C-16.37 2.54 -16.37 2.54 -14.37 2.23 C-14.04 2.56 -13.71 2.89 -13.37 3.23 C-12.98 2.78 -12.58 2.32 -12.18 1.86 C-8.14 -1.76 -5.03 -2.49 0 0 Z " fill="#006AFB" transform="translate(650.3671875,418.76953125)"/>
<path d="M0 0 C0.33 0 0.66 0 1 0 C1 7.92 1 15.84 1 24 C-2.3 24 -5.6 24 -9 24 C-9.99 24.66 -10.98 25.32 -12 26 C-12.7 22.85 -13 20.27 -13 17 C-12.01 17 -11.02 17 -10 17 C-10.33 16.01 -10.66 15.02 -11 14 C-9.87 10.99 -8.29 9.2 -6 7 C-4.66 5.34 -3.33 3.67 -2 2 C-1.34 1.34 -0.68 0.68 0 0 Z " fill="#0468F4" transform="translate(874,875)"/>
<path d="M0 0 C10.56 0 21.12 0 32 0 C32 0.33 32 0.66 32 1 C21.44 1 10.88 1 0 1 C0 0.67 0 0.34 0 0 Z " fill="#FB0302" transform="translate(676,368)"/>
<path d="M0 0 C0.33 0 0.66 0 1 0 C1 5.94 1 11.88 1 18 C0.67 18 0.34 18 0 18 C0 12.06 0 6.12 0 0 Z " fill="#000002" transform="translate(876,878)"/>
<path d="M0 0 C3.63 0 7.26 0 11 0 C11 0.33 11 0.66 11 1 C7.37 1 3.74 1 0 1 C0 0.67 0 0.34 0 0 Z " fill="#FB0302" transform="translate(652,368)"/>
<path d="M0 0 C3.3 0 6.6 0 10 0 C10 0.33 10 0.66 10 1 C6.7 1 3.4 1 0 1 C0 0.67 0 0.34 0 0 Z " fill="#FB0302" transform="translate(721,368)"/>
<path d="M0 0 C2.97 0 5.94 0 9 0 C9 0.33 9 0.66 9 1 C6.03 1 3.06 1 0 1 C0 0.67 0 0.34 0 0 Z " fill="#FB0302" transform="translate(1026,365)"/>
<path d="M0 0 C0.66 0.33 1.32 0.66 2 1 C0.68 1.99 -0.64 2.98 -2 4 C-1.34 2.68 -0.68 1.36 0 0 Z " fill="#3049AC" transform="translate(45,851)"/>
<path d="M0 0 C0.99 0.33 1.98 0.66 3 1 C1.68 1.33 0.36 1.66 -1 2 C-0.67 1.34 -0.34 0.68 0 0 Z " fill="#0AE2E5" transform="translate(865,899)"/>
<path d="M0 0 C1.98 0 3.96 0 6 0 C6 0.33 6 0.66 6 1 C4.02 1 2.04 1 0 1 C0 0.67 0 0.34 0 0 Z " fill="#000002" transform="translate(476,661)"/>
<path d="M0 0 C1.98 0 3.96 0 6 0 C6 0.33 6 0.66 6 1 C4.02 1 2.04 1 0 1 C0 0.67 0 0.34 0 0 Z " fill="#FB0302" transform="translate(1014,365)"/>
<path d="M0 0 C1.65 0 3.3 0 5 0 C5 0.33 5 0.66 5 1 C3.35 1 1.7 1 0 1 C0 0.67 0 0.34 0 0 Z " fill="#0AE2E5" transform="translate(220,899)"/>
<path d="M0 0 C0.33 0 0.66 0 1 0 C1 1.65 1 3.3 1 5 C0.67 5 0.34 5 0 5 C0 3.35 0 1.7 0 0 Z " fill="#006BFC" transform="translate(576,828)"/>
<path d="M0 0 C1.65 0 3.3 0 5 0 C5 0.33 5 0.66 5 1 C3.35 1 1.7 1 0 1 C0 0.67 0 0.34 0 0 Z " fill="#FB0302" transform="translate(968,365)"/>
<path d="M0 0 C0.66 0.33 1.32 0.66 2 1 C1.01 1 0.02 1 -1 1 C-0.67 0.67 -0.34 0.34 0 0 Z " fill="#FB0302" transform="translate(480,1196)"/>
<path d="M0 0 C1 4 1 4 1 4 Z " fill="#000002" transform="translate(265,440)"/>
<path d="M0 0 C4 1 4 1 4 1 Z " fill="#FB0302" transform="translate(1002,365)"/>
<path d="M0 0 C4 1 4 1 4 1 Z " fill="#FB0302" transform="translate(992,365)"/>
<path d="M0 0 C4 1 4 1 4 1 Z " fill="#FB0302" transform="translate(981,365)"/>
<path d="M0 0 C0.33 0.66 0.66 1.32 1 2 C0.34 1.67 -0.32 1.34 -1 1 C-0.67 0.67 -0.34 0.34 0 0 Z " fill="#FB0302" transform="translate(996,1168)"/>
<path d="M0 0 C3 1 3 1 3 1 Z " fill="#000002" transform="translate(254,900)"/>
<path d="M0 0 C3 1 3 1 3 1 Z " fill="#0AE2E5" transform="translate(111,896)"/>
<path d="" fill="#006BFC" transform="translate(0,0)"/>
<path d="M0 0 C0.99 0.5 0.99 0.5 2 1 C1.01 1.5 1.01 1.5 0 2 C0 1.34 0 0.68 0 0 Z " fill="#006BFC" transform="translate(47,849)"/>
<path d="M0 0 C0.33 0.66 0.66 1.32 1 2 C0.34 1.67 -0.32 1.34 -1 1 C-0.67 0.67 -0.34 0.34 0 0 Z " fill="#38449F" transform="translate(50,847)"/>
<path d="" fill="#000002" transform="translate(0,0)"/>
<path d="" fill="#000002" transform="translate(0,0)"/>
<path d="" fill="#000002" transform="translate(0,0)"/>
<path d="" fill="#000002" transform="translate(0,0)"/>
<path d="" fill="#000002" transform="translate(0,0)"/>
<path d="" fill="#000002" transform="translate(0,0)"/>
<path d="" fill="#000002" transform="translate(0,0)"/>
<path d="" fill="#000002" transform="translate(0,0)"/>
<path d="" fill="#000002" transform="translate(0,0)"/>
<path d="" fill="#FB0302" transform="translate(0,0)"/>
<path d="" fill="#FB0302" transform="translate(0,0)"/>
<path d="" fill="#FB0302" transform="translate(0,0)"/>
<path d="" fill="#000002" transform="translate(0,0)"/>
<path d="" fill="#FB0302" transform="translate(0,0)"/>
<path d="M0 0 C2 1 2 1 2 1 Z " fill="#FB0302" transform="translate(1019,1141)"/>
<path d="" fill="#FB0302" transform="translate(0,0)"/>
<path d="" fill="#FB0302" transform="translate(0,0)"/>
<path d="" fill="#000002" transform="translate(0,0)"/>
<path d="M0 0 C2 1 2 1 2 1 Z " fill="#006BFC" transform="translate(552,860)"/>
<path d="" fill="#006BFC" transform="translate(0,0)"/>
<path d="M0 0 C2 1 2 1 2 1 Z " fill="#006BFC" transform="translate(56,841)"/>
<path d="" fill="#006BFC" transform="translate(0,0)"/>
<path d="" fill="#006BFC" transform="translate(0,0)"/>
<path d="" fill="#FB0302" transform="translate(0,0)"/>
<path d="" fill="#000002" transform="translate(0,0)"/>
<path d="" fill="#0AE2E5" transform="translate(0,0)"/>
<path d="" fill="#1C57CD" transform="translate(0,0)"/>
<path d="" fill="#006BFC" transform="translate(0,0)"/>
<path d="" fill="#FB0302" transform="translate(0,0)"/>
<path d="" fill="#000002" transform="translate(0,0)"/>
<path d="" fill="#006BFC" transform="translate(0,0)"/>
<path d="" fill="#006BFC" transform="translate(0,0)"/>
<path d="" fill="#006BFC" transform="translate(0,0)"/>
<path d="" fill="#1C57CD" transform="translate(0,0)"/>
<path d="" fill="#000002" transform="translate(0,0)"/>
<path d="" fill="#006BFC" transform="translate(0,0)"/>
<path d="M0 0 C2 1 2 1 2 1 Z " fill="#FB0302" transform="translate(1021,365)"/>
<path d="M0 0 C2 1 2 1 2 1 Z " fill="#FB0302" transform="translate(988,365)"/>
<path d="" fill="#000002" transform="translate(0,0)"/>
<path d="" fill="#006BFC" transform="translate(0,0)"/>
<path d="" fill="#000002" transform="translate(0,0)"/>
<path d="" fill="#000002" transform="translate(0,0)"/>
<path d="" fill="#000002" transform="translate(0,0)"/>
<path d="" fill="#000002" transform="translate(0,0)"/>
<path d="" fill="#000002" transform="translate(0,0)"/>
<path d="" fill="#000002" transform="translate(0,0)"/>
<path d="" fill="#006BFC" transform="translate(0,0)"/>
<path d="" fill="#FB0302" transform="translate(0,0)"/>
<path d="" fill="#FB0302" transform="translate(0,0)"/>
<path d="" fill="#FB0302" transform="translate(0,0)"/>
<path d="" fill="#FB0302" transform="translate(0,0)"/>
<path d="" fill="#FB0302" transform="translate(0,0)"/>
<path d="" fill="#FB0302" transform="translate(0,0)"/>
<path d="" fill="#FB0302" transform="translate(0,0)"/>
<path d="" fill="#FB0302" transform="translate(0,0)"/>
<path d="" fill="#FB0302" transform="translate(0,0)"/>
<path d="" fill="#FB0302" transform="translate(0,0)"/>
<path d="" fill="#FB0302" transform="translate(0,0)"/>
<path d="" fill="#000002" transform="translate(0,0)"/>
<path d="" fill="#000002" transform="translate(0,0)"/>
<path d="" fill="#FB0302" transform="translate(0,0)"/>
<path d="" fill="#FB0302" transform="translate(0,0)"/>
<path d="" fill="#FB0302" transform="translate(0,0)"/>
<path d="" fill="#000002" transform="translate(0,0)"/>
<path d="" fill="#FB0302" transform="translate(0,0)"/>
<path d="" fill="#FB0302" transform="translate(0,0)"/>
<path d="" fill="#FB0302" transform="translate(0,0)"/>
<path d="" fill="#FB0302" transform="translate(0,0)"/>
<path d="" fill="#FB0302" transform="translate(0,0)"/>
<path d="" fill="#FB0302" transform="translate(0,0)"/>
<path d="" fill="#FB0302" transform="translate(0,0)"/>
<path d="" fill="#FB0302" transform="translate(0,0)"/>
<path d="" fill="#000002" transform="translate(0,0)"/>
<path d="" fill="#FB0302" transform="translate(0,0)"/>
<path d="" fill="#FB0302" transform="translate(0,0)"/>
<path d="" fill="#FB0302" transform="translate(0,0)"/>
<path d="" fill="#0AE2E5" transform="translate(0,0)"/>
<path d="" fill="#38449F" transform="translate(0,0)"/>
<path d="" fill="#006BFC" transform="translate(0,0)"/>
<path d="" fill="#000002" transform="translate(0,0)"/>
<path d="" fill="#38449F" transform="translate(0,0)"/>
<path d="" fill="#006BFC" transform="translate(0,0)"/>
<path d="" fill="#006BFC" transform="translate(0,0)"/>
<path d="" fill="#006BFC" transform="translate(0,0)"/>
<path d="" fill="#006BFC" transform="translate(0,0)"/>
<path d="" fill="#000002" transform="translate(0,0)"/>
<path d="" fill="#006BFC" transform="translate(0,0)"/>
<path d="" fill="#006BFC" transform="translate(0,0)"/>
<path d="" fill="#006BFC" transform="translate(0,0)"/>
<path d="" fill="#006BFC" transform="translate(0,0)"/>
<path d="" fill="#000002" transform="translate(0,0)"/>
<path d="" fill="#38449F" transform="translate(0,0)"/>
<path d="" fill="#000002" transform="translate(0,0)"/>
<path d="" fill="#006BFC" transform="translate(0,0)"/>
<path d="" fill="#000002" transform="translate(0,0)"/>
<path d="" fill="#000002" transform="translate(0,0)"/>
<path d="" fill="#38449F" transform="translate(0,0)"/>
<path d="" fill="#38449F" transform="translate(0,0)"/>
<path d="" fill="#FB0302" transform="translate(0,0)"/>
<path d="" fill="#FB0302" transform="translate(0,0)"/>
<path d="" fill="#000002" transform="translate(0,0)"/>
<path d="" fill="#000002" transform="translate(0,0)"/>
<path d="" fill="#000002" transform="translate(0,0)"/>
<path d="" fill="#FB0302" transform="translate(0,0)"/>
<path d="" fill="#000002" transform="translate(0,0)"/>
<path d="" fill="#FB0302" transform="translate(0,0)"/>
<path d="" fill="#FB0302" transform="translate(0,0)"/>
<path d="" fill="#38449F" transform="translate(0,0)"/>
<path d="" fill="#FB0302" transform="translate(0,0)"/>
<path d="" fill="#FB0302" transform="translate(0,0)"/>
<path d="" fill="#000002" transform="translate(0,0)"/>
<path d="" fill="#006BFC" transform="translate(0,0)"/>
<path d="" fill="#000002" transform="translate(0,0)"/>
<path d="" fill="#FB0302" transform="translate(0,0)"/>
<path d="" fill="#000002" transform="translate(0,0)"/>
<path d="" fill="#38449F" transform="translate(0,0)"/>
<path d="" fill="#006BFC" transform="translate(0,0)"/>
<path d="" fill="#000002" transform="translate(0,0)"/>
<path d="" fill="#0AE2E5" transform="translate(0,0)"/>
<path d="" fill="#000002" transform="translate(0,0)"/>
<path d="" fill="#006BFC" transform="translate(0,0)"/>
<path d="" fill="#38449F" transform="translate(0,0)"/>
<path d="" fill="#000002" transform="translate(0,0)"/>
<path d="" fill="#FB0302" transform="translate(0,0)"/>
<path d="" fill="#FB0302" transform="translate(0,0)"/>
<path d="" fill="#FB0302" transform="translate(0,0)"/>
<path d="" fill="#FB0302" transform="translate(0,0)"/>
<path d="" fill="#FB0302" transform="translate(0,0)"/>
<path d="" fill="#000002" transform="translate(0,0)"/>
<path d="" fill="#000002" transform="translate(0,0)"/>
<path d="" fill="#FB0302" transform="translate(0,0)"/>
<path d="" fill="#000002" transform="translate(0,0)"/>
<path d="" fill="#000002" transform="translate(0,0)"/>
<path d="" fill="#FB0302" transform="translate(0,0)"/>
<path d="" fill="#FB0302" transform="translate(0,0)"/>
<path d="" fill="#FB0302" transform="translate(0,0)"/>
<path d="" fill="#000002" transform="translate(0,0)"/>
<path d="" fill="#38449F" transform="translate(0,0)"/>
<path d="" fill="#000002" transform="translate(0,0)"/>
<path d="" fill="#006BFC" transform="translate(0,0)"/>
<path d="" fill="#006BFC" transform="translate(0,0)"/>
<path d="" fill="#000002" transform="translate(0,0)"/>
<path d="" fill="#006BFC" transform="translate(0,0)"/>
<path d="" fill="#006BFC" transform="translate(0,0)"/>
<path d="" fill="#006BFC" transform="translate(0,0)"/>
<path d="" fill="#000002" transform="translate(0,0)"/>
<path d="" fill="#38449F" transform="translate(0,0)"/>
<path d="" fill="#006BFC" transform="translate(0,0)"/>
<path d="" fill="#006BFC" transform="translate(0,0)"/>
<path d="" fill="#38449F" transform="translate(0,0)"/>
<path d="" fill="#38449F" transform="translate(0,0)"/>
<path d="" fill="#38449F" transform="translate(0,0)"/>
<path d="" fill="#38449F" transform="translate(0,0)"/>
<path d="" fill="#000002" transform="translate(0,0)"/>
<path d="" fill="#38449F" transform="translate(0,0)"/>
<path d="" fill="#000002" transform="translate(0,0)"/>
<path d="" fill="#38449F" transform="translate(0,0)"/>
<path d="" fill="#38449F" transform="translate(0,0)"/>
<path d="" fill="#38449F" transform="translate(0,0)"/>
</svg>
